<?xml version="1.0" encoding="utf-8"?>
<!-- Generator: Adobe Illustrator 22.1.0, SVG Export Plug-In . SVG Version: 6.00 Build 0)  -->
<svg version="1.1" id="bike-12" xmlns="http://www.w3.org/2000/svg" xmlns:xlink="http://www.w3.org/1999/xlink" x="0px" y="0px"
	 viewBox="0 0 1010 585.7" style="enable-background:new 0 0 1010 585.7;" xml:space="preserve">
<style type="text/css">
	.st0{fill:#FEB901;}
</style>
<path id="bike-12-bike-12" class="st0" d="M309.9,64.7c-12.5,0-24-4.1-33.4-10.8h-4.1c-12.6,0-22.9,10.2-22.9,22.9
	c0,12.6,10.3,22.9,22.9,22.9h121.5c8.6,0,18.8-4.9,18.8-17.2c0-11.9-9.6-17.8-19-17.8C393.7,64.7,309.9,64.7,309.9,64.7z M821,207.7
	c-16.2,0-31.8,2.3-46.8,6.1L697.8,12.9c-3.2-8.4-11.5-13.3-20-12.8c-0.5,0-0.9-0.1-1.4-0.1h-68C598.8,0,591,7.8,591,17.4
	c0,9.6,7.8,17.4,17.4,17.4h54.8l26.6,69.9H352.5c-3,0-5.8,0.7-8.4,1.9c-3.6,1.4-6.7,3.8-8.8,7.4l-65.4,112.1
	c-24.6-11.7-51.9-18.4-80.9-18.4c-104.2,0-189,84.8-189,189c0,104.2,84.8,189,189,189c98.4,0,179.3-75.5,188.2-171.6h39
	c7.5,25.1,30.6,43.5,58.1,43.5c33.7,0,61-27.3,61-60.9c0-11.4-3.3-22-8.8-31.1l180.6-215.4l29.5,77.5c-62,31-104.7,95-104.7,168.9
	c0,104.2,84.8,189,189,189c104.2,0,189-84.8,189-189C1010,292.5,925.2,207.7,821,207.7z M220.9,379.3l61.3-105.1
	c32.6,24.9,55.1,62.3,60,105.1H220.9z M299.9,243.9l51.2-87.9l83,195.2c-8.4,7.4-14.6,17-17.9,28h-39
	C372.1,323.7,342.8,275.1,299.9,243.9z M474.4,335.8c-1.1,0-2.1,0.3-3.1,0.3l-81.4-191.3h269.6L495.8,339.9
	C489.1,337.3,481.9,335.8,474.4,335.8z M189,550.9c-85,0-154.2-69.2-154.2-154.2S104,242.5,189,242.5c22.6,0,44,5,63.3,13.8
	l-61.9,106.2c-0.5,0-0.9-0.1-1.4-0.1c-19,0-34.4,15.4-34.4,34.4c0,19,15.4,34.4,34.4,34.4c12.6,0,23.5-6.9,29.5-17h123.7
	C333.5,491,268.2,550.9,189,550.9z M821,550.9c-85.1,0-154.2-69.2-154.2-154.2c0-59.1,33.4-110.4,82.3-136.3l44.2,116.2
	c-4.1,5.7-6.6,12.6-6.6,20.1c0,19,15.4,34.4,34.4,34.4c19,0,34.4-15.4,34.4-34.4c0-15.4-10.1-28.2-24-32.6l-44.7-117.6
	c11.1-2.5,22.5-4,34.4-4c85,0,154.2,69.2,154.2,154.2S906,550.9,821,550.9z"/>
</svg>
