<?xml version="1.0" encoding="utf-8"?>
<!-- Generator: Adobe Illustrator 22.1.0, SVG Export Plug-In . SVG Version: 6.00 Build 0)  -->
<svg version="1.1" id="bike-6" xmlns="http://www.w3.org/2000/svg" xmlns:xlink="http://www.w3.org/1999/xlink" x="0px" y="0px"
	 viewBox="0 0 1010 619.7" style="enable-background:new 0 0 1010 619.7;" xml:space="preserve">
<style type="text/css">
	.st0{fill:#FEB901;}
</style>
<path id="bike-6-bike-6" class="st0" d="M462.9,444.8c-1.7-4.5,0.6-9.4,5.1-11c4.5-1.7,9.4,0.7,11,5.1l36,98h16.3V554h-51.5v-17.2
	h16.8L462.9,444.8z M441.1,139.2v-11.6c0-4.8-3.8-8.6-8.6-8.6H298.4c-4.7,0-8.6,3.8-8.6,8.6v23.7c0,2.7,1.2,5.2,3.4,6.8
	c1.1,0.9,26,19.3,70.4,22c0.5,0,1,0.1,1.5,0.1c3.7,0,12.9-0.5,21.9-5.6l49.9-28C439.5,145.2,441.1,142.4,441.1,139.2z M627.6,428.5
	c0,105.4,85.7,191.2,191.2,191.2c105.4,0,191.2-85.8,191.2-191.2c0-105.5-85.8-191.2-191.2-191.2c-26.4,0-51.6,5.4-74.5,15.1
	c3.2,8.5,6.2,16.6,9,24.2c20.1-8.7,42.2-13.5,65.5-13.5c91.2,0,165.5,74.3,165.5,165.5c0,91.2-74.2,165.5-165.5,165.5
	c-91.3,0-165.5-74.2-165.5-165.5c0-55.6,27.5-104.8,69.7-134.9l-9.2-24.9C661.9,303,627.6,361.7,627.6,428.5z M6.8,394
	c4.6,1,9.2-2,10.2-6.7c18.4-90,95.6-156.4,186.2-162.5h27.4c43.2,2.9,82.7,19.2,114.4,44.9c-3.4,2.8-6.9,5.5-10.2,8.3
	c-32.5-25.5-73.5-40.9-117.9-40.9c-105.4,0-191.2,85.8-191.2,191.2c0,105.4,85.8,191.2,191.2,191.2c78.5,0,146-47.6,175.5-115.3
	c-8.9-0.5-18.2-1-27.7-1.5c-27.3,54-83.2,91.1-147.7,91.1c-91.2,0-165.5-74.2-165.5-165.5c0-91.2,74.2-165.5,165.5-165.5
	c36.8,0,70.8,12.1,98.2,32.4c-30.3,28-54.9,57.1-72.6,80.5c-2.2,3-4.4,5.8-6.4,8.6h-20.9c-25.9,0-47.1,21.1-47.1,47.1
	c0,22.7,15.9,41.7,38.1,46v0c24.7,6.5,80.2,12.3,165.3,17l26.8,1.4l75.3,3.2l-18.9-51.4c-0.7-1.9-1.1-3.9-1.1-5.9
	c0-2.4,0.5-4.9,1.6-7.2c1.9-4.2,5.4-7.3,9.7-8.9c4.3-1.6,8.9-1.4,13.1,0.5c4.2,2,7.4,5.4,8.9,9.7l19.9,54
	c16.2-10.5,26.3-28.6,26.3-48.1l-1-10.6c-1.4-7.1-4-13.8-7.9-19.9c-10.6-16.8-28.8-26.8-48.5-26.8h-218c2.1-2.8,4.3-5.7,6.7-8.6
	c16.8-21.1,38.4-45.8,64.1-69.4c20.4,18.8,36.2,42.6,45.2,69.4h26.9c-9.6-33.4-28-63.1-52.6-86.4c3.3-2.7,6.7-5.4,10.1-8.1
	c26.5,25.5,46.2,58,55.9,94.5h17.7c-9.9-40.5-30.9-76.6-59.7-105c6.8-4.9,13.9-9.6,21-14.1l44,119.1h21
	c38.8-10.8,160.2-53.6,237.3-181.5l4.2,11.3C643.2,300.9,577,366.4,530.5,405c3.3,5,6,10.4,7.9,16.1c20.9-17.1,45.9-39.7,72.4-68.1
	c-8.6,23.6-13.3,48.9-13.3,75.4c0,19,2.4,37.9,7.2,56.1c1.2,4.6,5.9,7.3,10.5,6.2c4.5-1.2,7.3-5.9,6.1-10.5
	c-4.4-16.9-6.7-34.2-6.7-51.8c0-75.4,41.1-141.3,102-176.6l30.9,83.7c19.8,54.2,74.1,97.9,76.4,99.7c3.7,3,9.1,2.3,12-1.4
	c1.3-1.6,1.9-3.5,1.9-5.3c0-2.5-1.1-5-3.2-6.7c-0.6-0.4-52.9-42.5-71-92.2c0,0-14.6-39.3-31.7-85.8c26.3-12.4,55.6-19.4,86.5-19.4
	h0.4c16,0,32,1.9,47.5,5.6c4.6,1.1,9.2-1.8,10.3-6.4c1.1-4.6-1.7-9.3-6.3-10.4c-4.7-1.1-9.4-2-14.1-2.9l0.4-3.2H740.8l1.7,13.6
	c-5.6,2.1-11.1,4.3-16.5,6.8c-2.5-6.8-5-13.6-7.6-20.5h-0.3v-1c-7.4-19.9-14.6-39.4-21-56.6h168.1l2.4-16H691.3
	c-8.1-22-13.9-37.6-14.8-40c5.2-5.2,17.5-17.5,17.5-17.5c1-1,1.8-2.2,2.1-3.6c3.1-10.4,8.5-30.8,8.5-47.1c0-7.8-1.2-14.8-4.6-19.2
	C697.2,2.2,692.8,0,688,0c-0.4,0-0.9,0.1-1.3,0.1c-0.4-0.1-0.9-0.1-1.3-0.1c-0.6,0-1.1,0.1-1.6,0.1c-0.4,0-0.7-0.1-1.1-0.1h-73.4
	c-4.7,0-8.6,3.8-8.6,8.6c0,4.8,3.8,8.6,8.6,8.6h32.2c-16,11.4-27.7,24.3-28.5,25.3c-3.1,3.6-2.8,9,0.7,12.1
	c3.5,3.1,8.9,2.8,12.1-0.7c9-10.2,37.4-36.7,59.6-36.7c0.4,0,0.9-0.1,1.3-0.1c0.7,1.4,0.9,3.7,0.9,6.8c0,9.5-2.8,26-7.3,41.8
	c-2.8,2.8-19.7,19.8-19.7,19.8c-1.6,1.6-2.5,3.8-2.5,6.1c0,1,0.2,2,0.5,3l29.2,79.1c-75.3,135.4-206.3,178.3-238,186.9l-65-175.8
	c0,0-9.6,4.5-16.6,4.5l19,51.3c-9.6,6-19,12.2-27.9,18.8c-17.5-14.7-37.3-26.7-58.7-35.5c2.5-1.5,4.2-4.2,4.2-7.4
	c0-4.7-3.8-8.6-8.6-8.6h-64.9c-4.7-0.3-9.4-0.5-14.2-0.5s-9.5,0.2-14.2,0.5H97.7c-4.7,0-8.6,3.8-8.6,8.6c0,4.7,3.9,8.6,8.6,8.6h33
	c-65.3,27.9-115.6,86.4-130.5,159C-0.8,388.6,2.2,393.1,6.8,394z M869,125.1l2.4-15.9H726.1l2.4,15.9H869z M724.9,100.5h147.8
	l2.4-16H722.4L724.9,100.5z M878,64.7c0-0.1,0-0.2,0-0.3c0-0.2-0.1-0.4-0.1-0.6c0-0.3,0-0.5-0.2-0.8c-0.1-0.3-0.2-0.5-0.4-0.7
	c-0.1-0.2-0.3-0.5-0.4-0.7c-0.2-0.2-0.4-0.4-0.6-0.6c-0.2-0.2-0.4-0.3-0.7-0.4c-0.3-0.1-0.6-0.2-0.8-0.3c-0.2-0.1-0.3-0.2-0.5-0.2
	c-0.1,0-0.2,0-0.3,0c-0.1,0-0.2,0-0.3,0h-150c-0.1,0-0.2,0-0.3,0c-0.1,0-0.2,0-0.3,0c-0.2,0-0.3,0.1-0.5,0.2
	c-0.3,0.1-0.5,0.2-0.8,0.3c-0.3,0.1-0.4,0.2-0.7,0.4c-0.2,0.2-0.4,0.4-0.6,0.6c-0.2,0.2-0.3,0.4-0.5,0.7c-0.1,0.2-0.2,0.5-0.4,0.7
	c-0.1,0.3-0.1,0.5-0.1,0.8c-0.1,0.2-0.1,0.4-0.1,0.6c0,0.1,0,0.2,0.1,0.3c0,0.1,0,0.2,0,0.3l1.6,11h155.3l1.6-11
	C878.1,64.9,878,64.8,878,64.7z M735.8,174.1h125.8l2.4-15.9h-8.7H742.2h-8.7L735.8,174.1z M851.7,182.7H745.8h-8.7l2.4,15.9H858
	l2.4-15.9H851.7z"/>
</svg>
