<?xml version="1.0" encoding="utf-8"?>
<!-- Generator: Adobe Illustrator 22.1.0, SVG Export Plug-In . SVG Version: 6.00 Build 0)  -->
<svg version="1.1" id="Слой_1" xmlns="http://www.w3.org/2000/svg" xmlns:xlink="http://www.w3.org/1999/xlink" x="0px" y="0px"
	 viewBox="0 0 213.7 260.2" style="enable-background:new 0 0 213.7 260.2;" xml:space="preserve">
<style type="text/css">
	.st0{fill:none;stroke:#FFFFFF;stroke-miterlimit:10;}
</style>
<title>Ресурс 2</title>
<g id="Слой_2_1_">
	<g id="Слой_1-2">
		<g id="Слой_1-3">
			<polygon class="st0" points="6.4,83.2 48.2,91.8 47.3,93.2 5.6,86.5 			"/>
			<polygon class="st0" points="7.9,77.3 49.7,89.4 48.9,90.8 6.9,80.9 			"/>
			<polygon class="st0" points="9.9,71.4 50.7,86.8 50.1,88.5 8.7,75.1 			"/>
			<polygon class="st0" points="12.3,65.7 51.1,84 51,85.7 10.8,69.2 			"/>
			<polygon class="st0" points="14.8,60.6 51.3,81.3 51.3,83 13.2,63.6 			"/>
			<path class="st0" d="M17,56.2c0.6-1.2,1.3-2.3,2.1-3.4l1.8,1.2c0,0-1.9,3.2-1.9,3.3L17,56.2z"/>
			<path class="st0" d="M21.9,54.5l1.8,1.2c0,0-1.8,3.1-1.8,3.2l-2.1-1.1C19.9,57.8,21.5,54.8,21.9,54.5z"/>
			<path class="st0" d="M24.7,56.3l1.8,1.2c0,0-1.7,3-1.7,3.1l-2-1.1C23.3,58.4,24,57.3,24.7,56.3z"/>
			<path class="st0" d="M27.5,58l1.8,1.2c0,0-1.6,2.9-1.6,3l-2-1.1C25.7,61.2,27.2,58.3,27.5,58z"/>
			<path class="st0" d="M30.3,59.8l1.9,1.2c0,0-1.5,2.9-1.5,3l-2-1.1C29.1,61.8,29.6,60.8,30.3,59.8z"/>
			<path class="st0" d="M33.1,61.5l1.9,1.2c0,0-1.4,2.8-1.4,2.9l-2-1.1C32,63.5,32.5,62.4,33.1,61.5z"/>
			<path class="st0" d="M35.8,63.3l1.9,1.2c0,0-1.3,2.7-1.3,2.8l-2-1.1C34.4,66.2,35.6,63.5,35.8,63.3z"/>
			<path class="st0" d="M38.6,65.1l1.9,1.2c0,0-1.2,2.6-1.2,2.7l-2-1.1C37.7,66.9,38.1,66,38.6,65.1z"/>
			<path class="st0" d="M41.4,66.8l1.9,1.1l-1.1,2.6l-2-1.1C40.2,69.5,41.2,67,41.4,66.8z"/>
			<path class="st0" d="M44.2,68.6l1.9,1.1c0,0-1,2.5-1,2.6l-2-1.1C43.4,70.3,43.8,69.4,44.2,68.6z"/>
			<path class="st0" d="M47,70.3l1.9,1.1c0,0-0.9,2.4-0.9,2.5l-2-1.1C46.3,71.9,46.6,71.1,47,70.3z"/>
			<path class="st0" d="M49.8,72.1l1.9,1.1c0,0-0.8,2.3-0.8,2.4l-2-1.1C49.1,73.7,49.4,72.9,49.8,72.1z"/>
			<path class="st0" d="M52.6,73.8l1.9,1.1l-0.7,2.3l-2-1.1C52,75.3,52.3,74.5,52.6,73.8z"/>
			<path class="st0" d="M55.4,75.6l1.9,1.1l-0.6,2.2l-2-1.1C54.7,77.8,55.3,75.7,55.4,75.6z"/>
			<path class="st0" d="M58.2,77.3l1.9,1.1l-0.5,2.1l-2-1.1C57.6,79.5,58.1,77.4,58.2,77.3z"/>
			<path class="st0" d="M60.9,79.1l1.9,1.1c0,0-0.4,2-0.4,2.1l-2-1.1C60.6,80.5,60.8,79.8,60.9,79.1z"/>
			<path class="st0" d="M63.7,80.8l1.9,1.1l-0.3,2l-2-1.1C63.5,82.1,63.6,81.5,63.7,80.8z"/>
			<path class="st0" d="M66.5,82.6l1.9,1.1l-0.2,1.9l-1.9-1.1L66.5,82.6z"/>
			<polygon class="st0" points="69.3,84.3 69.2,86.2 71.1,87.2 71.2,85.4 			"/>
			<path class="st0" d="M20.4,50.6c0.7-1.1,1.5-2.2,2.4-3.2l1.7,1.4c0,0-2.1,3-2.1,3.1L20.4,50.6z"/>
			<path class="st0" d="M25.9,49.7l1.8,1.4c0,0-2,2.9-2,3.1c0,0-1.9-1.3-2-1.3C24.3,51.8,25.1,50.7,25.9,49.7z"/>
			<path class="st0" d="M29,51.9l1.8,1.3c0,0-1.9,2.8-1.9,3c0,0-1.9-1.3-2-1.3C27.5,53.9,28.2,52.9,29,51.9z"/>
			<path class="st0" d="M32.2,54.2l1.8,1.3c0,0-1.8,2.8-1.8,2.9c-0.7-0.4-1.3-0.8-1.9-1.3C30.9,56.1,31.5,55.1,32.2,54.2z"/>
			<path class="st0" d="M35.3,56.5l1.8,1.3c0,0-1.6,2.7-1.7,2.8l-1.9-1.2C34,58.4,34.6,57.4,35.3,56.5z"/>
			<path class="st0" d="M38.5,58.7l1.8,1.3c0,0-1.5,2.6-1.5,2.7l-1.9-1.2C37.4,60.5,37.9,59.6,38.5,58.7z"/>
			<path class="st0" d="M41.6,61l1.8,1.3c0,0-1.4,2.5-1.4,2.6l-1.9-1.2C40.1,63.7,41.4,61.2,41.6,61z"/>
			<path class="st0" d="M44.8,63.3l1.8,1.3c0,0-1.3,2.4-1.3,2.5s-1.8-1.2-1.9-1.2C43.7,65,44.2,64.1,44.8,63.3z"/>
			<path class="st0" d="M47.9,65.5l1.8,1.3c0,0-1.1,2.3-1.2,2.4S46.7,68,46.6,68C47,67.1,47.4,66.3,47.9,65.5z"/>
			<path class="st0" d="M51,67.8l1.8,1.3c0,0-1,2.2-1.1,2.3s-1.8-1.2-1.9-1.2S50.9,67.9,51,67.8z"/>
			<path class="st0" d="M54.2,70l1.9,1.3c0,0-0.9,2.2-0.9,2.3s-1.8-1.2-1.9-1.2C53.4,71.5,53.7,70.7,54.2,70z"/>
			<path class="st0" d="M57.3,72.3l1.9,1.3c0,0-0.8,2.1-0.8,2.2c-0.7-0.4-1.3-0.8-1.9-1.2C56.7,73.8,56.9,73,57.3,72.3z"/>
			<path class="st0" d="M60.5,74.6l1.9,1.3c0,0-0.6,2-0.7,2.1s-1.7-1.1-1.9-1.2S60.4,74.6,60.5,74.6z"/>
			<path class="st0" d="M63.6,76.8l1.9,1.3c0,0-0.5,1.9-0.6,2S63.2,79,63,79S63.5,76.9,63.6,76.8z"/>
			<path class="st0" d="M66.7,79.1l1.9,1.3c-0.1,0.6-0.3,1.3-0.5,1.9c-0.1,0.1-1.7-1.1-1.9-1.1C66.2,81.1,66.7,79.1,66.7,79.1z"/>
			<path class="st0" d="M69.9,81.3c-0.1,0.6-0.2,1.3-0.3,1.9c0.1,0,1.8,1.2,1.8,1.1s0.3-1.8,0.3-1.8L69.9,81.3z"/>
			<path class="st0" d="M24.2,45.4c0,0,2.1-2.8,2.5-3.1l1.7,1.5c0,0-2.3,2.9-2.3,3L24.2,45.4z"/>
			<path class="st0" d="M29.6,44.7l1.7,1.5c0,0-2.2,2.8-2.2,2.9l-1.9-1.4C27.2,47.7,29.2,45,29.6,44.7z"/>
			<path class="st0" d="M32.6,47.1l1.7,1.5c0,0-2,2.7-2.1,2.8L30.3,50C31,49,31.8,48,32.6,47.1z"/>
			<path class="st0" d="M35.5,49.5l1.7,1.5c0,0-1.9,2.6-2,2.8l-1.8-1.4C34,51.4,34.7,50.4,35.5,49.5z"/>
			<path class="st0" d="M38.5,51.9l1.7,1.4c-0.6,0.9-1.2,1.8-1.8,2.7l-1.8-1.4C37.1,53.6,37.8,52.7,38.5,51.9z"/>
			<path class="st0" d="M41.4,54.3l1.7,1.4c0,0-1.7,2.5-1.7,2.6l-1.8-1.4C40.1,56,40.7,55.1,41.4,54.3z"/>
			<path class="st0" d="M44.3,56.8l1.7,1.4c0,0-1.5,2.4-1.6,2.5c-0.6-0.4-1.2-0.9-1.8-1.4C43.1,58.4,43.7,57.6,44.3,56.8z"/>
			<path class="st0" d="M47.3,59.2l1.7,1.4c0,0-1.4,2.3-1.5,2.4c-0.6-0.4-1.2-0.9-1.8-1.4C46.2,60.7,46.7,59.9,47.3,59.2z"/>
			<path class="st0" d="M50.2,61.6l1.7,1.4c0,0-1.3,2.2-1.3,2.3c-0.6-0.4-1.2-0.9-1.7-1.4C49.3,63.1,49.7,62.3,50.2,61.6z"/>
			<path class="st0" d="M53.1,64l1.7,1.4c-0.4,0.7-0.8,1.5-1.2,2.3c-0.6-0.4-1.2-0.8-1.7-1.3C51.9,66.4,53,64.1,53.1,64z"/>
			<path class="st0" d="M56.1,66.4l1.7,1.4L56.7,70c-0.6-0.4-1.2-0.8-1.7-1.3C55.3,67.9,55.7,67.1,56.1,66.4z"/>
			<path class="st0" d="M59,68.8l1.7,1.4c0,0-0.9,2-1,2.1c-0.6-0.4-1.2-0.8-1.7-1.3C58.3,70.2,58.6,69.5,59,68.8z"/>
			<path class="st0" d="M61.9,71.2l1.7,1.4c0,0-0.8,1.9-0.9,2c-0.6-0.4-1.2-0.8-1.7-1.3L61.9,71.2z"/>
			<path class="st0" d="M64.9,73.6l1.7,1.4c0,0-0.7,1.8-0.7,1.9c-0.6-0.4-1.2-0.8-1.7-1.3C64.4,74.9,64.6,74.3,64.9,73.6z"/>
			<path class="st0" d="M67.8,76l1.7,1.4c-0.2,0.6-0.4,1.2-0.6,1.8c-0.1,0.1-1.6-1.3-1.6-1.3L67.8,76z"/>
			<path class="st0" d="M70.8,78.4l-0.5,1.8c0,0,1.5,1.4,1.6,1.3c0.2-0.6,0.4-1.2,0.5-1.8L70.8,78.4z"/>
			<path class="st0" d="M28.3,40.3c0.8-1,1.7-2,2.7-2.9l1.6,1.6c0,0-2.5,2.7-2.5,2.8L28.3,40.3z"/>
			<path class="st0" d="M34.2,40.4l1.6,1.6c0,0-2.3,2.6-2.4,2.8l-1.8-1.5C32.3,42.2,33.2,41.3,34.2,40.4z"/>
			<path class="st0" d="M37.3,43.3l1.6,1.6c0,0-2.2,2.6-2.2,2.7l-1.8-1.5C35.6,45.1,36.4,44.2,37.3,43.3z"/>
			<path class="st0" d="M40.4,46.2l1.6,1.6c0,0-2.1,2.5-2.1,2.6l-1.7-1.5C38.9,47.9,39.6,47,40.4,46.2z"/>
			<path class="st0" d="M43.6,49.1l1.6,1.6c0,0-1.9,2.4-1.9,2.5l-1.7-1.5C42.2,50.8,42.8,49.9,43.6,49.1z"/>
			<path class="st0" d="M46.7,52l1.6,1.5c0,0-1.8,2.3-1.8,2.4l-1.7-1.5C44.8,54.5,46.4,52.2,46.7,52z"/>
			<path class="st0" d="M49.8,55l1.6,1.5c0,0-1.6,2.3-1.7,2.3L48,57.3C48.1,57.4,49.6,55.1,49.8,55z"/>
			<path class="st0" d="M52.9,57.9l1.6,1.5L53,61.6l-1.7-1.5C51.4,60.2,52.7,58,52.9,57.9z"/>
			<path class="st0" d="M56.1,60.8l1.6,1.5l-1.4,2.1l-1.7-1.5C54.6,63,55.9,60.9,56.1,60.8z"/>
			<path class="st0" d="M59.2,63.7l1.6,1.5c0,0-1.2,2-1.2,2.1l-1.7-1.4C57.9,65.9,59.1,63.8,59.2,63.7z"/>
			<path class="st0" d="M62.3,66.7l1.7,1.5c0,0-1.1,1.9-1.1,2l-1.7-1.4C61.5,68.1,61.9,67.4,62.3,66.7z"/>
			<path class="st0" d="M65.5,69.6l1.7,1.5L66.3,73l-1.6-1.4C64.5,71.6,65.4,69.6,65.5,69.6z"/>
			<path class="st0" d="M68.6,72.5l1.7,1.5l-0.8,1.8l-1.6-1.4C68.1,73.8,68.3,73.1,68.6,72.5z"/>
			<polygon class="st0" points="71.7,75.4 71.1,77.3 72.8,78.7 73.4,76.9 			"/>
			<path class="st0" d="M32.6,35.4c1-0.9,2-1.8,3.1-2.6l1.4,1.7c0,0-2.8,2.4-2.8,2.5L32.6,35.4z"/>
			<path class="st0" d="M38.8,36.2l1.4,1.7c0,0-2.6,2.3-2.7,2.5l-1.6-1.7C35.9,38.7,38.4,36.4,38.8,36.2z"/>
			<path class="st0" d="M41.9,39.5l1.4,1.7c0,0-2.5,2.3-2.5,2.4l-1.6-1.7C39.2,41.9,41.5,39.7,41.9,39.5z"/>
			<path class="st0" d="M45.1,42.8l1.4,1.7c0,0-2.3,2.2-2.3,2.3l-1.5-1.6C43.4,44.3,44.2,43.5,45.1,42.8z"/>
			<path class="st0" d="M48.2,46.1c0,0,1.4,1.6,1.4,1.7s-2.2,2.1-2.2,2.2l-1.5-1.6C45.9,48.4,47.9,46.3,48.2,46.1z"/>
			<path class="st0" d="M51.3,49.5c0,0,1.4,1.6,1.4,1.7s-2,2.1-2,2.1l-1.5-1.6C49.8,50.9,50.5,50.2,51.3,49.5z"/>
			<path class="st0" d="M54.4,52.8l1.4,1.6c0,0-1.8,2-1.9,2.1L52.4,55C52.5,54.9,54.2,52.9,54.4,52.8z"/>
			<path class="st0" d="M57.5,56.1l1.4,1.6c0,0-1.7,1.9-1.7,2l-1.5-1.5C55.8,58.2,57.3,56.2,57.5,56.1z"/>
			<path class="st0" d="M60.6,59.4c0,0,1.4,1.5,1.4,1.6s-1.5,1.9-1.5,1.9l-1.4-1.5C59.1,61.4,60.5,59.5,60.6,59.4z"/>
			<path class="st0" d="M63.8,62.7c0,0,1.4,1.5,1.4,1.6s-1.4,1.8-1.4,1.8l-1.4-1.5C62.4,64.7,63.7,62.8,63.8,62.7z"/>
			<path class="st0" d="M66.9,66c0,0,1.5,1.5,1.5,1.6s-1.2,1.7-1.2,1.7l-1.4-1.4C66.1,67.2,66.5,66.6,66.9,66z"/>
			<path class="st0" d="M70,69.3l1.5,1.5l-1.1,1.7L69,71.1C69.4,70.5,69.7,69.9,70,69.3z"/>
			<path class="st0" d="M73.1,72.7l-0.8,1.8l1.4,1.4c0,0,0.9-1.5,0.9-1.6S73.1,72.7,73.1,72.7z"/>
			<path class="st0" d="M5.1,89.6c0,0-1.9,4.8-1.4,22h1.9c0,0-0.5-11.9,1.4-21.7L5.1,89.6z"/>
			<polygon class="st0" points="28.3,93.8 33.7,105.8 26.8,110.2 28.6,110.3 35.5,106 30.1,94 			"/>
			<polygon class="st0" points="25.4,93.2 29.8,105.9 23.8,110.4 25.6,110.5 32.5,106.2 27.2,93.5 			"/>
			<polygon class="st0" points="19.6,110.7 24.3,106 21.1,92.5 22.9,92.8 26.7,106.2 21.4,110.7 			"/>
			<polygon class="st0" points="15.3,111 18.8,106 16.8,91.7 18.6,92 21,106.2 17.2,110.9 			"/>
			<polygon class="st0" points="11.1,111.2 13.2,106.1 12.5,90.9 14.3,91.2 15.2,106.2 13,111.1 			"/>
			<polygon class="st0" points="6.6,111.5 7.4,106.1 7.9,90.2 9.7,90.4 9.2,106.2 8.5,111.3 			"/>
			<polygon class="st0" points="9.9,141.9 10.8,144.4 11.9,144.1 11,141.5 			"/>
			<path class="st0" d="M11.7,141.3l1.1-0.4l0.9,2.6l-1.1,0.3L11.7,141.3z"/>
			<path class="st0" d="M13.4,140.6l1.1-0.4l0.8,2.5l-1.1,0.4L13.4,140.6z"/>
			<path class="st0" d="M15.1,140l1.1-0.5l0.7,2.5l-1.1,0.4L15.1,140z"/>
			<path class="st0" d="M16.9,139.3l1.1-0.5l0.6,2.5l-1.1,0.4L16.9,139.3z"/>
			<path class="st0" d="M18.6,138.6c0.4-0.1,0.7-0.3,1.1-0.5l0.5,2.5l-1.1,0.4L18.6,138.6z"/>
			<path class="st0" d="M20.4,138c0.1,0,1.2-0.5,1.2-0.5L22,140l-1.1,0.5L20.4,138z"/>
			<path class="st0" d="M22.1,137.3c0.1,0,1.2-0.5,1.2-0.5l0.3,2.5l-1.1,0.5L22.1,137.3z"/>
			<path class="st0" d="M23.9,136.7c0.1,0,1.2-0.5,1.2-0.5l0.2,2.4l-1.1,0.5L23.9,136.7z"/>
			<polygon class="st0" points="8.3,137.4 9,140 10.2,139.7 9.4,137.1 			"/>
			<polygon class="st0" points="11.1,136.5 11.8,139.1 10.7,139.4 10,136.9 			"/>
			<polygon class="st0" points="12.8,136 13.5,138.6 12.3,138.9 11.7,136.4 			"/>
			<polygon class="st0" points="14.6,135.4 15.1,138 13.9,138.3 13.4,135.9 			"/>
			<polygon class="st0" points="16.3,134.9 16.8,137.4 15.6,137.8 15.1,135.3 			"/>
			<polygon class="st0" points="18,134.3 18.4,136.8 17.2,137.3 16.8,134.8 			"/>
			<polygon class="st0" points="19.7,133.8 20.1,136.3 18.8,136.7 18.5,134.3 			"/>
			<polygon class="st0" points="21.5,133.2 21.7,135.7 20.5,136.2 20.2,133.7 			"/>
			<polygon class="st0" points="23.2,132.7 23.4,135.1 22.1,135.6 21.9,133.2 			"/>
			<polygon class="st0" points="24.9,132.1 25,134.5 23.8,135.1 23.6,132.7 			"/>
			<polygon class="st0" points="7.1,133 7.6,135.6 8.7,135.5 8.2,132.8 			"/>
			<polygon class="st0" points="9.7,132.4 10.2,135 9,135.2 8.6,132.6 			"/>
			<polygon class="st0" points="11.2,132 11.7,134.6 10.5,134.8 10.1,132.2 			"/>
			<polygon class="st0" points="12.8,131.5 13.2,134.1 12,134.3 11.6,131.8 			"/>
			<polygon class="st0" points="14.3,131.1 14.6,133.7 13.4,133.9 13.1,131.4 			"/>
			<polygon class="st0" points="15.8,130.7 16.1,133.2 14.9,133.5 14.6,131 			"/>
			<polygon class="st0" points="17.3,130.3 17.6,132.8 16.4,133.1 16.1,130.6 			"/>
			<polygon class="st0" points="18.8,129.9 19.1,132.3 17.8,132.6 17.6,130.2 			"/>
			<polygon class="st0" points="20.4,129.4 20.5,131.9 19.3,132.2 19.1,129.8 			"/>
			<polygon class="st0" points="21.9,129 22,131.4 20.8,131.8 20.6,129.4 			"/>
			<polygon class="st0" points="23.4,128.6 23.5,131 22.3,131.4 22.2,128.9 			"/>
			<polygon class="st0" points="24.9,128.2 25,130.5 23.7,130.9 23.7,128.5 			"/>
			<polygon class="st0" points="6,128.5 6.5,131.1 7.6,131 7.1,128.3 			"/>
			<polygon class="st0" points="7.6,128.2 8,130.7 9.2,130.6 8.8,127.9 			"/>
			<polygon class="st0" points="9.2,127.8 9.6,130.3 10.8,130.2 10.4,127.5 			"/>
			<polygon class="st0" points="10.9,127.4 11.2,130 12.4,129.8 12,127.2 			"/>
			<polygon class="st0" points="12.5,127.1 12.7,129.6 14,129.4 13.7,126.8 			"/>
			<polygon class="st0" points="14.1,126.7 14.3,129.2 15.6,129 15.3,126.4 			"/>
			<polygon class="st0" points="15.7,126.3 15.9,128.8 17.1,128.6 17,126.1 			"/>
			<polygon class="st0" points="17.4,126 17.4,128.4 18.7,128.2 18.6,125.7 			"/>
			<polygon class="st0" points="19,125.6 19,128.1 20.3,127.8 20.2,125.3 			"/>
			<polygon class="st0" points="20.6,125.2 20.6,127.7 21.9,127.4 21.9,124.9 			"/>
			<polygon class="st0" points="22.3,124.9 22.2,127.3 23.5,127 23.5,124.6 			"/>
			<polygon class="st0" points="23.9,124.5 23.7,126.9 25.1,126.6 25.2,124.2 			"/>
			<polygon class="st0" points="5.1,124 5.5,126.6 6.7,126.5 6.2,123.8 			"/>
			<polygon class="st0" points="6.6,123.7 6.9,126.3 8.1,126.2 7.7,123.5 			"/>
			<polygon class="st0" points="8,123.5 8.3,126 9.5,125.9 9.2,123.3 			"/>
			<polygon class="st0" points="9.5,123.2 9.8,125.7 11,125.6 10.6,123 			"/>
			<polygon class="st0" points="11,123 11.2,125.5 12.4,125.3 12.1,122.7 			"/>
			<polygon class="st0" points="12.4,122.7 12.6,125.2 13.8,125 13.6,122.5 			"/>
			<polygon class="st0" points="13.9,122.5 14.1,124.9 15.2,124.7 15.1,122.2 			"/>
			<polygon class="st0" points="15.4,122.2 15.5,124.6 16.7,124.5 16.6,122 			"/>
			<polygon class="st0" points="16.9,121.9 16.9,124.3 18.1,124.2 18,121.7 			"/>
			<polygon class="st0" points="18.3,121.7 18.3,124.1 19.5,123.9 19.5,121.5 			"/>
			<polygon class="st0" points="19.8,121.4 19.8,123.8 21,123.6 21,121.2 			"/>
			<polygon class="st0" points="21.3,121.2 21.2,123.5 22.4,123.3 22.5,121 			"/>
			<polygon class="st0" points="22.7,120.9 22.6,123.2 23.8,123 24,120.7 			"/>
			<polygon class="st0" points="24.2,120.7 24.1,122.9 25.3,122.7 25.4,120.4 			"/>
			<polygon class="st0" points="4.6,120.9 4.7,122.9 5.9,122.8 5.8,120.8 			"/>
			<polygon class="st0" points="6.3,120.7 6.5,122.6 7.7,122.5 7.5,120.6 			"/>
			<polygon class="st0" points="8,120.5 8.2,122.3 9.4,122.2 9.2,120.4 			"/>
			<polygon class="st0" points="9.7,120.3 10,122 11.2,121.9 10.9,120.1 			"/>
			<polygon class="st0" points="11.4,120 11.8,121.8 12.9,121.6 12.5,119.9 			"/>
			<polygon class="st0" points="13.1,119.8 13.5,121.5 14.7,121.3 14.2,119.7 			"/>
			<polygon class="st0" points="14.7,119.6 15.3,121.2 16.5,121 15.9,119.4 			"/>
			<polygon class="st0" points="16.4,119.3 17,120.9 18.2,120.7 17.6,119.2 			"/>
			<polygon class="st0" points="18.1,119.1 18.8,120.6 20,120.4 19.3,118.9 			"/>
			<polygon class="st0" points="19.8,118.9 20.6,120.3 21.8,120.1 21,118.7 			"/>
			<polygon class="st0" points="21.5,118.7 22.3,120.1 23.5,119.8 22.7,118.5 			"/>
			<polygon class="st0" points="23.2,118.4 24.1,119.8 25.3,119.5 24.4,118.2 			"/>
			<polygon class="st0" points="4.2,117.9 4.3,119.8 5.5,119.7 5.4,117.8 			"/>
			<polygon class="st0" points="5.8,117.7 5.9,119.6 7.1,119.5 7,117.6 			"/>
			<polygon class="st0" points="7.4,117.5 7.6,119.4 8.8,119.2 8.6,117.4 			"/>
			<polygon class="st0" points="9,117.4 9.2,119.1 10.5,119 10.2,117.2 			"/>
			<polygon class="st0" points="10.6,117.2 10.9,118.9 12.1,118.8 11.8,117.1 			"/>
			<polygon class="st0" points="12.2,117 12.5,118.7 13.8,118.5 13.4,116.9 			"/>
			<polygon class="st0" points="13.8,116.8 14.2,118.4 15.5,118.3 15,116.7 			"/>
			<polygon class="st0" points="15.4,116.7 15.8,118.2 17.2,118.1 16.6,116.5 			"/>
			<polygon class="st0" points="17,116.5 17.5,118 18.8,117.8 18.3,116.3 			"/>
			<polygon class="st0" points="18.6,116.3 19.1,117.7 20.5,117.6 19.9,116.2 			"/>
			<polygon class="st0" points="20.2,116.1 20.8,117.5 22.2,117.4 21.5,116 			"/>
			<polygon class="st0" points="21.8,116 22.4,117.3 23.8,117.1 23.1,115.8 			"/>
			<polygon class="st0" points="3.8,115 3.9,116.9 5.1,116.8 5,114.9 			"/>
			<polygon class="st0" points="5.5,114.8 5.6,116.7 6.8,116.6 6.7,114.7 			"/>
			<polygon class="st0" points="7.1,114.7 7.4,116.5 8.6,116.4 8.3,114.6 			"/>
			<polygon class="st0" points="8.8,114.5 9.1,116.3 10.3,116.2 10,114.4 			"/>
			<polygon class="st0" points="10.4,114.4 10.8,116.1 12,116 11.7,114.3 			"/>
			<polygon class="st0" points="12.1,114.2 12.5,115.9 13.8,115.8 13.3,114.1 			"/>
			<polygon class="st0" points="13.7,114.1 14.2,115.7 15.5,115.6 15,114 			"/>
			<polygon class="st0" points="15.4,113.9 15.9,115.4 17.2,115.4 16.7,113.9 			"/>
			<polygon class="st0" points="17,113.8 17.6,115.2 18.9,115.2 18.3,113.7 			"/>
			<polygon class="st0" points="18.7,113.7 19.3,115 20.7,115 20,113.6 			"/>
			<polygon class="st0" points="20.3,113.5 21,114.8 22.4,114.8 21.7,113.4 			"/>
			<polygon class="st0" points="3.7,111.6 3.7,113.6 4.9,113.6 4.9,111.6 			"/>
			<polygon class="st0" points="5.2,111.6 5.3,113.5 6.5,113.4 6.4,111.6 			"/>
			<polygon class="st0" points="6.8,111.5 6.9,113.4 8.1,113.3 8,111.5 			"/>
			<polygon class="st0" points="8.3,111.5 8.5,113.2 9.7,113.2 9.6,111.4 			"/>
			<polygon class="st0" points="9.8,111.4 10.1,113.1 11.4,113.1 11.1,111.4 			"/>
			<polygon class="st0" points="11.3,111.3 11.7,113 13,112.9 12.7,111.3 			"/>
			<polygon class="st0" points="12.9,111.3 13.3,112.9 14.6,112.8 14.2,111.3 			"/>
			<polygon class="st0" points="14.4,111.2 14.9,112.7 16.2,112.7 15.8,111.2 			"/>
			<polygon class="st0" points="15.9,111.2 16.5,112.6 17.9,112.6 17.4,111.1 			"/>
			<polygon class="st0" points="17.5,111.1 18.1,112.5 19.5,112.4 18.9,111.1 			"/>
			<polygon class="st0" points="19,111 19.7,112.4 21.1,112.3 20.5,111 			"/>
			<path class="st0" d="M40.2,28.5c0,0,14-11.7,26.8-15.9c0.3,0.5,0.6,1,0.9,1.5c-10.2,4.6-15.2,7.1-26.4,15.6L40.2,28.5z"/>
			<path class="st0" d="M42.4,31.1c0.4-0.4,13.8-11.4,25.8-15.4c0.1,0.1,0.7,1.2,0.9,1.5c-9.2,4.2-15,7-25.5,15.1
				C43.2,31.9,42.8,31.5,42.4,31.1z"/>
			<path class="st0" d="M44.7,33.8c0.7-0.7,13.6-11.1,24.9-14.8c0.1,0.3,0.7,1.2,0.8,1.5c-8.3,3.8-14.7,6.9-24.6,14.6
				C45.8,35,44.8,34,44.7,33.8z"/>
			<path class="st0" d="M46.9,36.4c1.1-1.1,13.4-10.8,24-14.3c0.2,0.4,0.7,1.2,0.8,1.5c-7.4,3.4-14.5,6.7-23.7,14
				C47.6,37.2,47.2,36.8,46.9,36.4z"/>
			<path class="st0" d="M49.1,39.1c1.5-1.4,13.2-10.5,23.1-13.7c0.3,0.5,0.7,1.3,0.8,1.5c-8.2,3.4-15.9,8-22.8,13.5
				C50.2,40.3,49.4,39.5,49.1,39.1z"/>
			<path class="st0" d="M51.3,41.8c1.8-1.8,13-10.2,22.1-13.2c0.2,0.5,0.5,1,0.8,1.5c-5.5,2.5-14,6.5-21.8,13
				C52.4,43,51.6,42.2,51.3,41.8z"/>
			<path class="st0" d="M53.5,44.4c2.2-2.1,12.8-9.9,21.2-12.7c0.4,0.8,0.7,1.3,0.8,1.5c-4.6,2.1-13.8,6.4-20.9,12.4
				C54.2,45.3,53.8,44.9,53.5,44.4z"/>
			<path class="st0" d="M55.7,47.1C58.3,44.6,68.3,37.4,76,35c0.5,0.9,0.7,1.3,0.8,1.5c-3.7,1.7-13.5,6.3-20,11.9
				C56.5,47.9,56.1,47.5,55.7,47.1z"/>
			<path class="st0" d="M57.9,49.7c3-2.8,12.4-9.4,19.4-11.6c0.2,0.5,0.5,1,0.8,1.5C75.3,40.9,64.8,45.8,59,51
				C58.6,50.6,58.2,50.2,57.9,49.7z"/>
			<path class="st0" d="M60.1,52.4c3.3-3.2,12.2-9.1,18.4-11c0.2,0.5,0.5,1,0.8,1.5c-1.8,0.8-13,6.1-18.2,10.8
				C61.2,53.6,60.8,53.2,60.1,52.4z"/>
			<path class="st0" d="M62.4,55c3.7-3.5,12-8.8,17.5-10.5c0.7,1.3,0.7,1.4,0.8,1.4c-0.9,0.4-12.8,6-17.2,10.3
				C63.4,56.3,63.1,56,62.4,55z"/>
			<path class="st0" d="M64.6,57.7c4.1-3.9,11.8-8.5,16.6-9.9l0.8,1.4c0,0-12.5,5.8-16.3,9.8C65.3,58.6,64.9,58.2,64.6,57.7z"/>
			<path class="st0" d="M68.1,57.7c0,0,8-5.6,11.3-6.8C79.5,51,80,52,80,52c-3.9,2-7.6,4.2-11.2,6.7L68.1,57.7z"/>
			<path class="st0" d="M69.3,59.3c0,0,8-5.6,11.3-6.8c0.1,0.1,0.6,1.1,0.6,1.1c-3.9,2-7.6,4.2-11.2,6.7L69.3,59.3z"/>
			<path class="st0" d="M70.4,60.9c0,0,8-5.6,11.3-6.8c0.1,0.1,0.6,1.1,0.6,1.1c-3.9,2-7.6,4.2-11.2,6.7L70.4,60.9z"/>
			<polygon class="st0" points="73.9,60.6 79.4,57.3 80,58.3 74.6,61.5 			"/>
			<polygon class="st0" points="75,62.2 80.5,59 81.1,59.9 75.6,63.1 			"/>
			<polygon class="st0" points="75.9,64 81.4,60.8 82,61.7 76.5,64.9 			"/>
			<polygon class="st0" points="80.4,63.4 81.1,64.8 79.6,65.8 78.6,64.4 			"/>
			<polygon class="st0" points="79.9,66.4 81.4,65.4 82.2,66.8 80.8,67.7 			"/>
			<polygon class="st0" points="81.1,68.3 82.5,67.5 83.3,68.9 82.1,69.6 			"/>
			<polygon class="st0" points="82.4,70.2 83.6,69.5 84.4,70.9 83.4,71.5 			"/>
			<polygon class="st0" points="83.7,72.1 84.7,71.5 85.5,72.9 84.6,73.4 			"/>
			<polygon class="st0" points="85,74 85.8,73.5 86.6,74.9 85.9,75.3 			"/>
			<polygon class="st0" points="86.2,76 86.9,75.5 87.7,77 87.2,77.3 			"/>
			<polygon class="st0" points="87.5,77.9 87.9,77.6 88.8,79 88.4,79.2 			"/>
			<polygon class="st0" points="88.8,79.8 89.7,81.1 89.8,81 89,79.6 			"/>
			<polygon class="st0" points="89.8,207.1 95,164.8 96.6,165.6 93.2,207.7 			"/>
			<polygon class="st0" points="83.9,206.1 92.6,163.5 94.1,164.2 87.5,206.9 			"/>
			<polygon class="st0" points="77.8,204.6 89.9,162.7 91.6,163.1 81.6,205.5 			"/>
			<polygon class="st0" points="71.9,202.7 87,162.6 88.8,162.5 75.6,203.9 			"/>
			<polygon class="st0" points="66.6,200.6 84.3,162.6 86,162.4 69.8,202 			"/>
			<path class="st0" d="M62,198.7c-1.2-0.5-2.4-1.1-3.5-1.8l1.1-1.9c0,0,3.3,1.6,3.4,1.6L62,198.7z"/>
			<path class="st0" d="M60,194l1.1-1.9c0,0,3.2,1.5,3.3,1.5l-1,2.1C62.2,195.2,61.1,194.6,60,194z"/>
			<path class="st0" d="M61.5,191.1l1-1.9c0,0,3.1,1.4,3.3,1.4l-0.9,2.1C63.7,192.2,62.6,191.7,61.5,191.1z"/>
			<path class="st0" d="M63.1,188.2l1-1.9c0,0,3.1,1.3,3.2,1.3l-0.9,2.1C65.3,189.3,64.2,188.8,63.1,188.2z"/>
			<path class="st0" d="M64.6,185.2l1-1.9c0,0,3,1.2,3.1,1.2l-0.9,2.1C66.7,186.2,65.6,185.8,64.6,185.2z"/>
			<path class="st0" d="M66.1,182.3l1-1.9c0,0,2.9,1.1,3,1.1l-0.9,2.1C68.1,183.2,67.1,182.8,66.1,182.3z"/>
			<path class="st0" d="M67.6,179.4l1-1.9c0,0,2.8,1,2.9,1l-0.9,2.1C70.6,180.6,67.9,179.6,67.6,179.4z"/>
			<path class="st0" d="M69.2,176.5l1-1.9c0.9,0.4,1.8,0.7,2.8,0.9l-0.9,2.1C71.1,177.3,70.1,176.9,69.2,176.5z"/>
			<path class="st0" d="M70.7,173.6l1-1.9c0,0,2.6,0.9,2.7,0.9l-0.9,2.1C73.5,174.6,70.9,173.8,70.7,173.6z"/>
			<path class="st0" d="M72.2,170.6l1-1.9l2.6,0.8l-0.9,2.1C74.9,171.5,72.4,170.8,72.2,170.6z"/>
			<path class="st0" d="M73.7,167.7l1-1.9l2.5,0.7l-0.9,2.1C76.3,168.5,73.9,167.9,73.7,167.7z"/>
			<path class="st0" d="M75.3,164.8l1-1.9l2.4,0.6l-0.9,2.1C77.8,165.5,75.4,164.9,75.3,164.8z"/>
			<path class="st0" d="M76.8,161.9l1-1.9c0,0,2.3,0.5,2.4,0.5l-0.9,2.1C79.2,162.5,76.9,162,76.8,161.9z"/>
			<path class="st0" d="M78.3,159l1-1.9c0,0,2.2,0.4,2.3,0.4l-0.9,2.1C79.9,159.4,79.1,159.2,78.3,159z"/>
			<path class="st0" d="M79.8,156l0.9-2c0,0,2.1,0.3,2.2,0.3l-0.9,2C81.3,156.3,80.5,156.2,79.8,156z"/>
			<path class="st0" d="M81.4,153.1l0.9-2l2.1,0.2l-0.9,2C82.8,153.3,82.1,153.3,81.4,153.1z"/>
			<path class="st0" d="M82.9,150.2l0.9-2l2,0.1l-0.9,2C84.2,150.3,83.6,150.3,82.9,150.2z"/>
			<path class="st0" d="M84.4,147.3l0.9-2h1.9l-0.9,2C85.7,147.4,85,147.4,84.4,147.3z"/>
			<polygon class="st0" points="85.9,144.4 87.7,144.3 88.7,142.3 86.8,142.4 			"/>
			<path class="st0" d="M56.3,195.8c-1.2-0.6-2.3-1.3-3.4-2.1l1.2-1.8c0,0,3.2,1.9,3.3,1.9L56.3,195.8z"/>
			<path class="st0" d="M54.9,190.4l1.2-1.9c0,0,3.1,1.8,3.2,1.8s-1.1,2-1.1,2.1C57.1,191.8,55.9,191.1,54.9,190.4z"/>
			<path class="st0" d="M56.9,187.1l1.2-1.9c0,0,3,1.6,3.1,1.6l-1.1,2C59,188.4,57.9,187.8,56.9,187.1z"/>
			<path class="st0" d="M58.9,183.8l1.2-1.9c0,0,2.9,1.5,3,1.5l-1.1,2C60.9,185,59.9,184.4,58.9,183.8z"/>
			<path class="st0" d="M60.9,180.5l1.2-1.9c0,0,2.8,1.4,2.9,1.4l-1.1,2C62.9,181.6,61.9,181.1,60.9,180.5z"/>
			<path class="st0" d="M62.9,177.2l1.2-1.9c0,0,2.7,1.3,2.8,1.3l-1.1,2C65.8,178.6,63.1,177.4,62.9,177.2z"/>
			<path class="st0" d="M64.9,173.8l1.2-1.9c0,0,2.6,1.2,2.7,1.2s-1.1,1.9-1.1,2C66.7,174.8,65.8,174.4,64.9,173.8z"/>
			<path class="st0" d="M66.9,170.5l1.2-1.9c0,0,2.5,1.1,2.6,1.1s-1,1.9-1.1,2C68.6,171.4,67.7,171,66.9,170.5z"/>
			<path class="st0" d="M68.9,167.2l1.2-1.9c0,0,2.4,0.9,2.5,1s-1,1.9-1,2C70.7,168,69.8,167.7,68.9,167.2z"/>
			<path class="st0" d="M70.9,163.9L72,162c0,0,2.3,0.8,2.4,0.9s-1,1.9-1,2C72.5,164.6,71.7,164.3,70.9,163.9z"/>
			<path class="st0" d="M72.9,160.6l1.1-1.9c0,0,2.2,0.7,2.3,0.8s-1,1.9-1,2S73,160.7,72.9,160.6z"/>
			<path class="st0" d="M74.9,157.3l1.1-2c0,0,2.1,0.6,2.2,0.6s-1,1.8-1,2C76.4,157.8,75.6,157.6,74.9,157.3z"/>
			<path class="st0" d="M76.9,154l1.1-2c0,0,2,0.5,2.1,0.5s-1,1.8-1,2S77,154,76.9,154z"/>
			<path class="st0" d="M78.9,150.7l1.1-2c0,0,1.9,0.4,2,0.4s-1,1.8-1,1.9S78.9,150.7,78.9,150.7z"/>
			<path class="st0" d="M80.9,147.3l1.1-2c0,0,1.8,0.3,1.9,0.3c-0.3,0.7-0.6,1.3-1,1.9C82.9,147.7,80.9,147.4,80.9,147.3z"/>
			<path class="st0" d="M82.9,144c0,0,1.9,0.3,2,0.1s1.1-1.9,1-1.9c-0.6-0.1-1.2-0.2-1.8-0.2L82.9,144z"/>
			<path class="st0" d="M50.7,192.5c-1.1-0.7-2.2-1.5-3.3-2.3l1.3-1.8c0,0,3.1,2.1,3.2,2.1L50.7,192.5z"/>
			<path class="st0" d="M49.6,187.1l1.3-1.8c0,0,3,1.9,3.1,2l-1.2,2C51.7,188.6,50.6,187.9,49.6,187.1z"/>
			<path class="st0" d="M51.8,184l1.3-1.8c0,0,2.9,1.8,3,1.8l-1.2,2C53.8,185.4,52.8,184.7,51.8,184z"/>
			<path class="st0" d="M54,180.8l1.3-1.8c0,0,2.8,1.7,2.9,1.7l-1.2,1.9C55.9,182.1,54.9,181.5,54,180.8z"/>
			<path class="st0" d="M56.1,177.7l1.3-1.8c0,0,2.7,1.6,2.8,1.6l-1.2,1.9C58,178.9,57,178.3,56.1,177.7z"/>
			<path class="st0" d="M58.3,174.6l1.3-1.8c0,0,2.6,1.5,2.7,1.5l-1.2,1.9C60.1,175.7,59.2,175.2,58.3,174.6z"/>
			<path class="st0" d="M60.4,171.5l1.3-1.8c0,0,2.5,1.3,2.6,1.4c-0.4,0.7-0.8,1.3-1.2,1.9C63.1,173,60.6,171.7,60.4,171.5z"/>
			<path class="st0" d="M62.6,168.4l1.3-1.8c0,0,2.4,1.2,2.5,1.3c-0.4,0.7-0.8,1.3-1.2,1.9C64.3,169.4,63.4,168.9,62.6,168.4z"/>
			<path class="st0" d="M64.8,165.2l1.3-1.8c0,0,2.3,1.1,2.4,1.2c-0.4,0.7-0.8,1.3-1.2,1.9C66.4,166.1,65.6,165.7,64.8,165.2z"/>
			<path class="st0" d="M66.9,162.1l1.3-1.8c0,0,2.2,1,2.3,1c-0.3,0.6-0.7,1.2-1.2,1.8C68.5,162.8,67.7,162.5,66.9,162.1z"/>
			<path class="st0" d="M69.1,159l1.3-1.8c0,0,2.1,0.9,2.3,0.9c-0.3,0.6-0.7,1.2-1.2,1.8C71.5,159.9,69.2,159.1,69.1,159z"/>
			<path class="st0" d="M71.2,155.9l1.3-1.8c0,0,2,0.7,2.2,0.8c-0.3,0.6-0.7,1.2-1.2,1.8C73.5,156.7,71.3,156,71.2,155.9z"/>
			<path class="st0" d="M73.4,152.8l1.3-1.8c0,0,1.9,0.6,2.1,0.7c-0.3,0.6-0.7,1.2-1.2,1.8L73.4,152.8z"/>
			<path class="st0" d="M75.5,149.6l1.3-1.8c0,0,1.8,0.5,2,0.6c-0.3,0.6-0.7,1.2-1.2,1.8C77.6,150.2,75.6,149.7,75.5,149.6z"/>
			<path class="st0" d="M77.7,146.5l1.3-1.8c0,0,1.7,0.4,1.9,0.5c-0.3,0.6-0.7,1.2-1.2,1.7L77.7,146.5z"/>
			<path class="st0" d="M79.9,143.4l1.9,0.3c0.5-0.5,0.9-1.1,1.2-1.7c-0.6-0.2-1.2-0.3-1.8-0.4L79.9,143.4z"/>
			<path class="st0" d="M45.3,188.8c0,0-2.8-2.1-3.1-2.5l1.4-1.7c0,0,2.9,2.3,3,2.3L45.3,188.8z"/>
			<path class="st0" d="M44.9,182.9l1.4-1.7c0,0,2.8,2.1,2.9,2.1l-1.4,1.9C46.8,184.5,45.8,183.7,44.9,182.9z"/>
			<path class="st0" d="M47.6,179.6l1.4-1.7c0,0,2.7,2,2.8,2l-1.4,1.9C50.5,181.8,47.8,179.9,47.6,179.6z"/>
			<path class="st0" d="M50.2,176.2l1.4-1.7c0,0,2.6,1.9,2.7,1.9l-1.4,1.9C53,178.2,50.4,176.5,50.2,176.2z"/>
			<path class="st0" d="M52.9,172.9l1.4-1.7l2.6,1.7l-1.3,1.9C55.6,174.7,53.1,173.2,52.9,172.9z"/>
			<path class="st0" d="M55.6,169.5l1.4-1.7l2.5,1.6l-1.3,1.8C57.3,170.7,56.4,170.1,55.6,169.5z"/>
			<path class="st0" d="M58.2,166.2l1.4-1.7L62,166l-1.3,1.8C60.7,167.7,58.4,166.4,58.2,166.2z"/>
			<path class="st0" d="M60.9,162.8l1.4-1.7c0,0,2.3,1.3,2.4,1.3l-1.3,1.8C62.5,163.8,61.7,163.3,60.9,162.8z"/>
			<path class="st0" d="M63.5,159.4l1.4-1.8c0,0,2.2,1.2,2.3,1.2l-1.3,1.8C65.1,160.3,64.2,159.9,63.5,159.4z"/>
			<path class="st0" d="M66.2,156.1l1.4-1.8c0,0,2.1,1.1,2.2,1.1l-1.3,1.8C67.7,156.9,66.9,156.5,66.2,156.1z"/>
			<path class="st0" d="M68.9,152.7l1.4-1.8c0,0,2,0.9,2.1,0.9l-1.3,1.8C70.3,153.4,69.6,153.1,68.9,152.7z"/>
			<path class="st0" d="M71.5,149.4l1.4-1.8c0,0,1.9,0.8,2,0.8l-1.3,1.8C72.9,149.9,72.2,149.6,71.5,149.4z"/>
			<path class="st0" d="M74.2,146l1.4-1.8l1.9,0.7l-1.3,1.7C75.5,146.5,74.8,146.3,74.2,146z"/>
			<polygon class="st0" points="76.9,142.7 78.7,143.1 80,141.4 78.2,140.9 			"/>
			<path class="st0" d="M40.1,184.8c-1-0.9-1.9-1.8-2.8-2.8l1.6-1.5c0.9,0.9,1.8,1.8,2.8,2.6L40.1,184.8z"/>
			<path class="st0" d="M40.4,178.6l1.6-1.5c0,0,2.5,2.4,2.7,2.5l-1.6,1.7C42.2,180.5,41.2,179.5,40.4,178.6z"/>
			<path class="st0" d="M43.4,175.2l1.6-1.5c0,0,2.5,2.3,2.6,2.3l-1.5,1.7C45.1,176.9,44.2,176.1,43.4,175.2z"/>
			<path class="st0" d="M46.5,171.9c0,0,1.5-1.5,1.6-1.5s2.4,2.1,2.5,2.2l-1.5,1.7C49,174.2,46.7,172.2,46.5,171.9z"/>
			<path class="st0" d="M49.6,168.5c0,0,1.5-1.5,1.6-1.5s2.3,2,2.4,2l-1.5,1.6C51.2,170,50.4,169.3,49.6,168.5z"/>
			<path class="st0" d="M52.6,165.1l1.5-1.5c0,0,2.2,1.8,2.3,1.8l-1.5,1.6C54.1,166.4,53.3,165.8,52.6,165.1z"/>
			<path class="st0" d="M55.7,161.7l1.5-1.5c0,0,2.1,1.7,2.2,1.7l-1.4,1.6C57.2,163,56.4,162.4,55.7,161.7z"/>
			<path class="st0" d="M58.7,158.4c0,0,1.4-1.5,1.5-1.5s2.1,1.5,2.1,1.5l-1.4,1.6C60.9,159.9,58.8,158.6,58.7,158.4z"/>
			<path class="st0" d="M61.8,155c0,0,1.4-1.6,1.5-1.6s2,1.4,2,1.4l-1.4,1.6C63.9,156.4,61.8,155.1,61.8,155z"/>
			<path class="st0" d="M64.8,151.6c0,0,1.4-1.6,1.5-1.6s1.9,1.2,1.9,1.2l-1.3,1.5C66.2,152.4,65.5,152,64.8,151.6z"/>
			<path class="st0" d="M67.9,148.2l1.4-1.6c0.1,0,1.8,1.1,1.8,1.1l-1.3,1.5C69.1,148.9,68.5,148.6,67.9,148.2z"/>
			<path class="st0" d="M70.9,144.9c0.4-0.6,0.9-1.1,1.4-1.6c0.1,0,1.7,0.9,1.8,0.9l-1.3,1.5L70.9,144.9z"/>
			<path class="st0" d="M74,141.5l1.8,0.7l1.3-1.5c0,0-1.6-0.8-1.7-0.8C74.9,140.4,74.4,140.9,74,141.5z"/>
			<path class="st0" d="M96.4,208c0,0,4.9,1.5,22-0.4l-0.2-1.9c0,0-11.8,1.5-21.7,0.3L96.4,208z"/>
			<polygon class="st0" points="98.6,184.5 110.2,178.1 115.1,184.6 115.1,182.9 110.2,176.3 98.7,182.7 			"/>
			<polygon class="st0" points="98.3,187.4 110.6,182 115.5,187.6 115.5,185.9 110.7,179.3 98.5,185.6 			"/>
			<polygon class="st0" points="116.2,191.8 111.1,187.5 97.9,191.7 98.1,189.9 111.1,185 116.1,190 			"/>
			<polygon class="st0" points="116.8,196 111.6,193 97.5,196.1 97.6,194.3 111.6,190.8 116.6,194.2 			"/>
			<polygon class="st0" points="117.4,200.2 112.1,198.5 97.1,200.4 97.2,198.7 112,196.5 117.1,198.4 			"/>
			<polygon class="st0" points="118,204.7 112.6,204.3 96.7,205.1 96.8,203.3 112.5,202.5 117.7,202.8 			"/>
			<polygon class="st0" points="148.1,198.9 150.5,197.9 150.1,196.7 147.6,197.9 			"/>
			<path class="st0" d="M147.3,197.2l-0.5-1l2.5-1.1l0.4,1.1L147.3,197.2z"/>
			<path class="st0" d="M146.5,195.6l-0.5-1.1l2.5-1l0.5,1.1L146.5,195.6z"/>
			<path class="st0" d="M145.7,193.9l-0.6-1.1l2.5-0.9l0.5,1.1L145.7,193.9z"/>
			<path class="st0" d="M144.9,192.2l-0.6-1.1l2.5-0.8l0.5,1.1L144.9,192.2z"/>
			<path class="st0" d="M144.1,190.5c-0.2-0.4-0.4-0.7-0.6-1.1l2.4-0.7l0.5,1.1L144.1,190.5z"/>
			<path class="st0" d="M143.3,188.8c-0.2-0.4-0.4-0.7-0.6-1.1l2.4-0.6l0.5,1L143.3,188.8z"/>
			<path class="st0" d="M142.6,187.1c-0.2-0.4-0.4-0.7-0.6-1.1l2.4-0.5l0.6,1L142.6,187.1z"/>
			<path class="st0" d="M141.8,185.4c-0.2-0.4-0.4-0.7-0.6-1.1l2.4-0.4l0.6,1L141.8,185.4z"/>
			<polygon class="st0" points="143.8,200.9 146.2,200 145.9,198.8 143.3,199.9 			"/>
			<polygon class="st0" points="142.6,198.2 145.2,197.2 145.5,198.4 143.1,199.3 			"/>
			<polygon class="st0" points="141.9,196.5 144.5,195.6 144.9,196.8 142.4,197.6 			"/>
			<polygon class="st0" points="141.2,194.8 143.7,194.1 144.2,195.2 141.8,196 			"/>
			<polygon class="st0" points="140.6,193.1 143,192.5 143.5,193.6 141.1,194.3 			"/>
			<polygon class="st0" points="139.9,191.5 142.3,190.9 142.9,192 140.4,192.7 			"/>
			<polygon class="st0" points="139.2,189.8 141.6,189.3 142.2,190.4 139.8,191 			"/>
			<polygon class="st0" points="138.5,188.1 140.9,187.7 141.5,188.9 139.1,189.3 			"/>
			<polygon class="st0" points="137.8,186.4 140.2,186.1 140.9,187.3 138.4,187.7 			"/>
			<polygon class="st0" points="137.1,184.7 139.5,184.5 140.2,185.7 137.8,186 			"/>
			<polygon class="st0" points="139.5,202.5 142,201.8 141.8,200.6 139.1,201.4 			"/>
			<polygon class="st0" points="138.6,199.9 141.2,199.2 141.5,200.3 138.9,201 			"/>
			<polygon class="st0" points="138.1,198.4 140.6,197.7 140.9,198.9 138.4,199.5 			"/>
			<polygon class="st0" points="137.5,196.9 140.1,196.3 140.4,197.5 137.9,198.1 			"/>
			<polygon class="st0" points="137,195.4 139.5,194.9 139.8,196.1 137.4,196.6 			"/>
			<polygon class="st0" points="136.4,194 138.9,193.4 139.3,194.6 136.8,195.1 			"/>
			<polygon class="st0" points="135.9,192.5 138.4,192 138.7,193.2 136.3,193.7 			"/>
			<polygon class="st0" points="135.4,191 137.8,190.6 138.2,191.8 135.8,192.2 			"/>
			<polygon class="st0" points="134.8,189.5 137.2,189.1 137.7,190.3 135.2,190.7 			"/>
			<polygon class="st0" points="134.3,188 136.6,187.7 137.1,188.9 134.7,189.2 			"/>
			<polygon class="st0" points="133.7,186.5 136.1,186.3 136.6,187.5 134.2,187.8 			"/>
			<polygon class="st0" points="133.2,185.1 135.5,184.8 136,186 133.6,186.3 			"/>
			<polygon class="st0" points="135.1,203.9 137.6,203.2 137.4,202.1 134.7,202.8 			"/>
			<polygon class="st0" points="134.6,202.3 137.1,201.7 136.9,200.5 134.2,201.2 			"/>
			<polygon class="st0" points="134.1,200.7 136.6,200.2 136.3,199 133.7,199.6 			"/>
			<polygon class="st0" points="133.6,199.1 136.1,198.6 135.8,197.4 133.2,198 			"/>
			<polygon class="st0" points="133.1,197.5 135.6,197.1 135.3,195.9 132.7,196.4 			"/>
			<polygon class="st0" points="132.6,196 135.1,195.6 134.7,194.3 132.2,194.8 			"/>
			<polygon class="st0" points="132.1,194.4 134.6,194 134.2,192.8 131.7,193.2 			"/>
			<polygon class="st0" points="131.6,192.8 134.1,192.5 133.7,191.2 131.2,191.6 			"/>
			<polygon class="st0" points="131.1,191.2 133.5,191 133.2,189.7 130.7,190 			"/>
			<polygon class="st0" points="130.6,189.6 133,189.4 132.6,188.2 130.2,188.4 			"/>
			<polygon class="st0" points="130.1,188 132.5,187.9 132.1,186.6 129.7,186.8 			"/>
			<polygon class="st0" points="129.6,186.4 132,186.4 131.6,185.1 129.2,185.2 			"/>
			<polygon class="st0" points="130.6,205.2 133.2,204.6 133,203.4 130.3,204.1 			"/>
			<polygon class="st0" points="130.2,203.7 132.8,203.2 132.6,202 129.9,202.6 			"/>
			<polygon class="st0" points="129.9,202.3 132.4,201.8 132.2,200.6 129.6,201.2 			"/>
			<polygon class="st0" points="129.5,200.8 132,200.4 131.8,199.2 129.2,199.7 			"/>
			<polygon class="st0" points="129.1,199.4 131.6,199 131.3,197.8 128.8,198.3 			"/>
			<polygon class="st0" points="128.7,198 131.2,197.6 130.9,196.4 128.4,196.8 			"/>
			<polygon class="st0" points="128.4,196.5 130.8,196.2 130.5,195 128.1,195.4 			"/>
			<polygon class="st0" points="128,195.1 130.4,194.8 130.1,193.6 127.7,193.9 			"/>
			<polygon class="st0" points="127.6,193.6 130,193.4 129.7,192.2 127.3,192.5 			"/>
			<polygon class="st0" points="127.2,192.2 129.6,192 129.3,190.8 126.9,191 			"/>
			<polygon class="st0" points="126.9,190.7 129.2,190.6 128.9,189.4 126.6,189.5 			"/>
			<polygon class="st0" points="126.5,189.3 128.8,189.2 128.5,188 126.2,188.1 			"/>
			<polygon class="st0" points="126.1,187.8 128.4,187.8 128.1,186.6 125.8,186.6 			"/>
			<polygon class="st0" points="125.8,186.4 128,186.3 127.7,185.2 125.4,185.2 			"/>
			<polygon class="st0" points="127.6,205.9 129.5,205.6 129.3,204.5 127.4,204.7 			"/>
			<polygon class="st0" points="127.2,204.2 129.1,203.9 128.9,202.7 127,203.1 			"/>
			<polygon class="st0" points="126.9,202.6 128.7,202.2 128.5,201 126.7,201.4 			"/>
			<polygon class="st0" points="126.5,200.9 128.3,200.4 128,199.3 126.3,199.7 			"/>
			<polygon class="st0" points="126.2,199.2 127.8,198.7 127.6,197.5 125.9,198.1 			"/>
			<polygon class="st0" points="125.8,197.6 127.4,197 127.2,195.8 125.6,196.4 			"/>
			<polygon class="st0" points="125.4,195.9 127,195.2 126.7,194.1 125.2,194.7 			"/>
			<polygon class="st0" points="125.1,194.2 126.6,193.5 126.3,192.3 124.8,193.1 			"/>
			<polygon class="st0" points="124.7,192.6 126.2,191.8 125.9,190.6 124.4,191.4 			"/>
			<polygon class="st0" points="124.3,190.9 125.7,190 125.4,188.9 124.1,189.7 			"/>
			<polygon class="st0" points="124,189.2 125.3,188.3 125,187.1 123.7,188.1 			"/>
			<polygon class="st0" points="123.6,187.6 124.9,186.6 124.5,185.4 123.3,186.4 			"/>
			<polygon class="st0" points="124.6,206.6 126.5,206.3 126.3,205.2 124.4,205.4 			"/>
			<polygon class="st0" points="124.3,205 126.2,204.7 126,203.5 124.1,203.8 			"/>
			<polygon class="st0" points="124,203.4 125.8,203.1 125.6,201.9 123.8,202.2 			"/>
			<polygon class="st0" points="123.7,201.9 125.4,201.4 125.2,200.2 123.5,200.6 			"/>
			<polygon class="st0" points="123.4,200.3 125.1,199.8 124.8,198.6 123.2,199 			"/>
			<polygon class="st0" points="123.1,198.7 124.7,198.2 124.5,196.9 122.9,197.4 			"/>
			<polygon class="st0" points="122.8,197.1 124.3,196.6 124.1,195.3 122.5,195.9 			"/>
			<polygon class="st0" points="122.5,195.5 124,194.9 123.7,193.6 122.2,194.3 			"/>
			<polygon class="st0" points="122.2,194 123.6,193.3 123.4,192 121.9,192.7 			"/>
			<polygon class="st0" points="121.9,192.4 123.2,191.7 123,190.3 121.6,191.1 			"/>
			<polygon class="st0" points="121.6,190.8 122.9,190.1 122.6,188.7 121.3,189.5 			"/>
			<polygon class="st0" points="121.3,189.2 122.5,188.4 122.3,187 121,187.9 			"/>
			<polygon class="st0" points="121.7,207.2 123.6,206.9 123.5,205.7 121.5,206 			"/>
			<polygon class="st0" points="121.4,205.5 123.3,205.2 123.1,204 121.3,204.3 			"/>
			<polygon class="st0" points="121.2,203.9 123,203.5 122.8,202.3 121,202.7 			"/>
			<polygon class="st0" points="120.9,202.3 122.6,201.8 122.4,200.6 120.7,201 			"/>
			<polygon class="st0" points="120.6,200.6 122.3,200.1 122.1,198.9 120.4,199.4 			"/>
			<polygon class="st0" points="120.3,199 121.9,198.5 121.7,197.2 120.1,197.8 			"/>
			<polygon class="st0" points="120,197.4 121.6,196.8 121.4,195.5 119.9,196.1 			"/>
			<polygon class="st0" points="119.8,195.7 121.2,195.1 121.1,193.8 119.6,194.5 			"/>
			<polygon class="st0" points="119.5,194.1 120.9,193.4 120.7,192.1 119.3,192.8 			"/>
			<polygon class="st0" points="119.2,192.4 120.5,191.7 120.4,190.4 119,191.2 			"/>
			<polygon class="st0" points="118.9,190.8 120.2,190 120,188.7 118.7,189.5 			"/>
			<polygon class="st0" points="118.4,207.6 120.4,207.4 120.2,206.2 118.3,206.4 			"/>
			<polygon class="st0" points="118.2,206 120.1,205.8 120,204.6 118.1,204.8 			"/>
			<polygon class="st0" points="118.1,204.5 119.9,204.2 119.7,203 117.9,203.3 			"/>
			<polygon class="st0" points="117.9,203 119.6,202.6 119.5,201.4 117.7,201.7 			"/>
			<polygon class="st0" points="117.7,201.5 119.4,201.1 119.2,199.8 117.6,200.2 			"/>
			<polygon class="st0" points="117.5,200 119.1,199.5 119,198.2 117.4,198.6 			"/>
			<polygon class="st0" points="117.3,198.4 118.9,197.9 118.7,196.6 117.2,197.1 			"/>
			<polygon class="st0" points="117.1,196.9 118.6,196.3 118.5,195 117,195.5 			"/>
			<polygon class="st0" points="116.9,195.4 118.4,194.7 118.2,193.4 116.8,194 			"/>
			<polygon class="st0" points="116.8,193.9 118.1,193.1 117.9,191.8 116.6,192.4 			"/>
			<polygon class="st0" points="116.6,192.4 117.9,191.5 117.7,190.2 116.4,190.9 			"/>
			<path class="st0" d="M32.6,177.8c0,0-12.8-13-18-25.4c0,0,1.1-0.7,1.5-1c5.4,9.8,8.3,14.6,17.7,25.1L32.6,177.8z"/>
			<path class="st0" d="M35,175.4c-0.4-0.3-12.5-12.9-17.4-24.5c0.1-0.1,1.1-0.7,1.5-1c4.9,8.9,8.2,14.4,17.1,24.2
				C35.8,174.6,35.4,175,35,175.4z"/>
			<path class="st0" d="M37.5,173c-0.8-0.7-12.2-12.7-16.8-23.6c0.2-0.2,1.2-0.8,1.4-1c4.4,8.5,10,16.4,16.5,23.4
				C38.3,172.2,37.9,172.6,37.5,173z"/>
			<path class="st0" d="M40,170.6c-1.1-1-11.9-12.5-16.2-22.8c0.5-0.3,1-0.6,1.4-1c4.3,8.2,9.6,15.8,15.9,22.5
				C41.1,169.4,40.2,170.3,40,170.6z"/>
			<path class="st0" d="M42.5,168.2c-1.5-1.4-11.6-12.3-15.6-21.9c0.5-0.3,1.2-0.8,1.4-0.9c3.5,6.2,7.8,13.7,15.3,21.6
				C43.2,167.4,42.8,167.8,42.5,168.2z"/>
			<path class="st0" d="M44.9,165.7c-1.9-1.7-11.3-12.1-14.9-21c0.6-0.4,1.2-0.8,1.4-0.9c3,5.3,7.6,13.4,14.7,20.7
				C45.7,164.9,45.3,165.3,44.9,165.7z"/>
			<path class="st0" d="M47.4,163.3c-2.3-2-10.9-11.9-14.3-20.1c0.7-0.5,1.3-0.8,1.4-0.9c2.5,4.4,7.5,13.2,14.1,19.9
				C48.6,162.1,47.9,162.9,47.4,163.3z"/>
			<path class="st0" d="M49.9,160.9c-2.7-2.4-10.6-11.8-13.7-19.2c0.5-0.3,1-0.6,1.4-0.9c2,3.5,7.4,13,13.5,19
				C51,159.7,50.5,160.4,49.9,160.9z"/>
			<path class="st0" d="M52.3,158.5c-3-2.7-10.3-11.6-13.1-18.4c0.5-0.3,1-0.6,1.4-0.9c1.5,2.7,7.2,12.7,12.9,18.1
				C53.1,157.7,52.7,158.1,52.3,158.5z"/>
			<path class="st0" d="M54.8,156.1c-3.4-3.1-10-11.4-12.5-17.5c1.1-0.7,1.3-0.8,1.4-0.9c1,1.8,7.1,12.5,12.2,17.2
				C56,154.9,55.6,155.4,54.8,156.1z"/>
			<path class="st0" d="M57.3,153.6c-3.8-3.4-9.7-11.2-11.9-16.6c1.2-0.8,1.3-0.9,1.4-0.9c0.5,0.9,7,12.3,11.6,16.4
				C58.1,152.9,57.7,153.3,57.3,153.6z"/>
			<path class="st0" d="M59.7,151.2c-4.2-3.7-9.4-11-11.2-15.7l1.4-0.9c0,0,6.8,12,11,15.5C60.5,150.5,60.1,150.9,59.7,151.2z"/>
			<path class="st0" d="M59.5,147.7c0,0-6.2-7.5-7.6-10.8c0.1-0.1,1-0.7,1-0.7c2.3,3.7,4.8,7.2,7.6,10.6L59.5,147.7z"/>
			<path class="st0" d="M61,146.3c0,0-6.2-7.5-7.6-10.8c0.1-0.1,1-0.7,1-0.7c2.3,3.7,4.8,7.2,7.6,10.6L61,146.3z"/>
			<path class="st0" d="M62.5,145.2c0,0-6.2-7.5-7.6-10.8c0.1-0.1,1-0.7,1-0.7c2.3,3.7,4.8,7.2,7.6,10.6L62.5,145.2z"/>
			<polygon class="st0" points="61.9,141.7 58.2,136.5 59.1,135.8 62.7,141 			"/>
			<polygon class="st0" points="63.4,140.5 59.7,135.3 60.7,134.6 64.3,139.8 			"/>
			<polygon class="st0" points="65.1,139.4 61.4,134.2 62.4,133.6 66,138.7 			"/>
			<polygon class="st0" points="64.2,135 65.5,134.1 66.6,135.6 65.3,136.7 			"/>
			<polygon class="st0" points="67.1,135.3 66.1,133.8 67.4,132.9 68.4,134.2 			"/>
			<polygon class="st0" points="69,133.8 68,132.5 69.4,131.6 70.2,132.8 			"/>
			<polygon class="st0" points="70.8,132.4 70,131.3 71.3,130.4 72,131.4 			"/>
			<polygon class="st0" points="72.6,131 71.9,130.1 73.2,129.1 73.8,130 			"/>
			<polygon class="st0" points="74.4,129.6 73.8,128.8 75.2,127.9 75.6,128.6 			"/>
			<polygon class="st0" points="76.2,128.2 75.7,127.6 77.1,126.6 77.4,127.1 			"/>
			<polygon class="st0" points="78,126.7 77.7,126.3 79,125.4 79.2,125.7 			"/>
			<polygon class="st0" points="79.8,125.3 81.1,124.3 80.9,124.2 79.6,125.1 			"/>
			<polygon class="st0" points="197.4,153.8 160.6,132.2 160.4,133.9 195.8,156.8 			"/>
			<polygon class="st0" points="200.2,148.4 161.1,129.4 160.7,131 198.6,151.7 			"/>
			<polygon class="st0" points="202.7,142.7 162.1,126.8 161.4,128.4 201.1,146.2 			"/>
			<polygon class="st0" points="204.8,136.8 163.7,124.5 162.6,125.8 203.5,140.4 			"/>
			<polygon class="st0" points="206.3,131.4 165.4,122.3 164.2,123.6 205.5,134.7 			"/>
			<path class="st0" d="M207.6,126.6c0.3-1.3,0.6-2.6,0.7-3.9l-2.2-0.3c0,0-0.7,3.6-0.8,3.7L207.6,126.6z"/>
			<path class="st0" d="M205.1,122.1l-2.2-0.3c0,0-0.8,3.5-0.8,3.6l2.3,0.5C204.7,124.7,205,123.4,205.1,122.1z"/>
			<path class="st0" d="M201.8,121.5l-2.2-0.3c0,0-0.8,3.4-0.9,3.4l2.3,0.5C201.4,123.9,201.7,122.7,201.8,121.5z"/>
			<path class="st0" d="M198.6,121l-2.2-0.4c0,0-0.8,3.2-0.9,3.3l2.3,0.5C198.2,123.3,198.4,122.2,198.6,121z"/>
			<path class="st0" d="M195.4,120.4l-2.2-0.4c0,0-0.8,3.1-0.9,3.2l2.3,0.5C194.5,123.8,195.4,120.8,195.4,120.4z"/>
			<path class="st0" d="M192.1,119.8l-2.2-0.4c0,0-0.8,3-0.9,3.1l2.2,0.5C191.7,122,192,120.9,192.1,119.8z"/>
			<path class="st0" d="M188.9,119.3l-2.2-0.4l-0.9,2.9l2.2,0.5C188.4,121.3,188.7,120.3,188.9,119.3z"/>
			<path class="st0" d="M185.6,118.7l-2.2-0.4c0,0-0.9,2.7-0.9,2.8l2.2,0.5C185.1,120.7,185.4,119.7,185.6,118.7z"/>
			<path class="st0" d="M182.4,118.1l-2.1-0.4c0,0-0.9,2.6-1,2.7l2.2,0.5C181.9,120,182.2,119.1,182.4,118.1z"/>
			<path class="st0" d="M179.1,117.6l-2.1-0.4c-0.3,0.9-0.6,1.7-1,2.5l2.2,0.5C178.6,119.4,178.9,118.5,179.1,117.6z"/>
			<path class="st0" d="M175.9,117l-2.1-0.4l-1,2.4l2.2,0.5C174.9,119.6,175.9,117.2,175.9,117z"/>
			<path class="st0" d="M172.6,116.5l-2.1-0.4l-1,2.3l2.2,0.5C172.1,118.1,172.4,117.3,172.6,116.5z"/>
			<path class="st0" d="M169.4,115.9l-2.1-0.4c0,0-1,2.1-1,2.2l2.2,0.5C168.4,118.2,169.4,116.1,169.4,115.9z"/>
			<path class="st0" d="M166.1,115.3l-2.1-0.4c-0.3,0.7-0.7,1.4-1.1,2l2.2,0.5C165.5,116.8,165.9,116,166.1,115.3z"/>
			<path class="st0" d="M162.9,114.8l-2.1-0.4l-1.1,1.9l2.2,0.5C161.9,116.8,162.9,114.9,162.9,114.8z"/>
			<path class="st0" d="M159.6,114.2l-2.1-0.4l-1.1,1.8l2.2,0.5C159,115.5,159.3,114.9,159.6,114.2z"/>
			<path class="st0" d="M156.4,113.7l-2.1-0.4l-1.1,1.6l2.2,0.5C155.7,114.8,156,114.2,156.4,113.7z"/>
			<path class="st0" d="M153.1,113.1l-2.1-0.5l-1.1,1.5l2.2,0.5C152,114.7,153.1,113.1,153.1,113.1z"/>
			<polygon class="st0" points="149.9,112.5 148.8,114 146.6,113.5 147.8,112.1 			"/>
			<path class="st0" d="M208.8,120.2c0.2-1.3,0.3-2.7,0.4-4L207,116c0,0-0.4,3.7-0.5,3.8L208.8,120.2z"/>
			<path class="st0" d="M205.4,115.8l-2.2-0.2c0,0-0.5,3.5-0.5,3.6l2.3,0.4C204.9,119.6,205.5,116.2,205.4,115.8z"/>
			<path class="st0" d="M201.5,115.4l-2.2-0.2c0,0-0.5,3.4-0.6,3.5l2.3,0.4C201.2,117.9,201.4,116.6,201.5,115.4z"/>
			<path class="st0" d="M197.7,115l-2.2-0.2c0,0-0.5,3.2-0.6,3.3l2.3,0.4C197.1,118.5,197.8,115.3,197.7,115z"/>
			<path class="st0" d="M193.8,114.5l-2.2-0.2c0,0-0.6,3.1-0.6,3.2c0.8,0.1,1.5,0.2,2.3,0.4C193.5,116.8,193.7,115.6,193.8,114.5z"
				/>
			<path class="st0" d="M190,114.1l-2.2-0.2c0,0-0.6,2.9-0.7,3c0.8,0.1,1.5,0.2,2.3,0.4C189.4,117.3,190,114.4,190,114.1z"/>
			<path class="st0" d="M186.1,113.7l-2.2-0.2c0,0-0.6,2.8-0.7,2.9c0.7,0.1,1.5,0.2,2.2,0.4C185.8,115.8,186,114.8,186.1,113.7z"/>
			<path class="st0" d="M182.3,113.3l-2.2-0.2c0,0-0.7,2.6-0.7,2.7s2.2,0.3,2.2,0.4S182.3,113.5,182.3,113.3z"/>
			<path class="st0" d="M178.4,112.9l-2.2-0.3c0,0-0.7,2.5-0.8,2.6s2.1,0.3,2.2,0.4C178,114.7,178.3,113.8,178.4,112.9z"/>
			<path class="st0" d="M174.6,112.4l-2.2-0.3c0,0-0.7,2.3-0.8,2.4s2.1,0.3,2.2,0.4C174.1,114.1,174.4,113.3,174.6,112.4z"/>
			<path class="st0" d="M170.7,112l-2.2-0.3c0,0-0.8,2.2-0.8,2.3s2.1,0.3,2.2,0.4C170.3,113.7,170.6,112.8,170.7,112z"/>
			<path class="st0" d="M166.9,111.6l-2.2-0.3c0,0-0.8,2.1-0.8,2.2s2.1,0.3,2.2,0.4S166.9,111.7,166.9,111.6z"/>
			<path class="st0" d="M163,111.2l-2.2-0.3c0,0-0.8,1.9-0.9,2s2.1,0.3,2.2,0.4C162.5,112.6,162.8,111.9,163,111.2z"/>
			<path class="st0" d="M159.2,110.8l-2.2-0.3c0,0-0.9,1.8-0.9,1.9s2,0.3,2.1,0.4C158.6,112.2,158.9,111.5,159.2,110.8z"/>
			<path class="st0" d="M155.3,110.3l-2.2-0.3c0,0-0.9,1.6-0.9,1.7s2,0.3,2.1,0.4C154.7,111.5,155,110.9,155.3,110.3z"/>
			<path class="st0" d="M151.5,109.9c0,0-0.9,1.7-1.1,1.6s-2.1-0.3-2.1-0.4s1-1.6,1-1.6L151.5,109.9z"/>
			<path class="st0" d="M209.5,113.8c0,0,0.3-3.5,0.2-4h-2.2c0,0-0.2,3.7-0.3,3.8L209.5,113.8z"/>
			<path class="st0" d="M205.9,109.6h-2.2c0,0-0.3,3.5-0.3,3.6l2.3,0.2C205.8,112.1,205.9,110.9,205.9,109.6z"/>
			<path class="st0" d="M202.1,109.4h-2.2c0,0-0.3,3.4-0.4,3.5l2.3,0.2C202,111.9,202.1,110.6,202.1,109.4z"/>
			<path class="st0" d="M198.3,109.3h-2.2c0,0-0.3,3.2-0.4,3.4l2.3,0.2C198.2,111.7,198.3,110.5,198.3,109.3z"/>
			<path class="st0" d="M194.5,109.1h-2.2c0,0-0.4,3.1-0.4,3.2l2.3,0.2C194.4,111.4,194.5,110.2,194.5,109.1z"/>
			<path class="st0" d="M190.7,108.9h-2.2c0,0-0.4,2.9-0.5,3.1c0.8,0.1,1.5,0.2,2.3,0.2C190.5,111.1,190.6,110,190.7,108.9z"/>
			<path class="st0" d="M186.9,108.7h-2.2c0,0-0.4,2.8-0.5,2.9c0.7,0.1,1.5,0.2,2.2,0.2C186.6,110.8,186.8,109.7,186.9,108.7z"/>
			<path class="st0" d="M183.1,108.6h-2.2c0,0-0.5,2.7-0.5,2.8c0.7,0.1,1.5,0.2,2.2,0.2C182.8,110.6,183,109.6,183.1,108.6z"/>
			<path class="st0" d="M179.3,108.4h-2.2c0,0-0.5,2.5-0.6,2.6c0.7,0.1,1.5,0.2,2.2,0.2C179,110.3,179.2,109.3,179.3,108.4z"/>
			<path class="st0" d="M175.6,108.2h-2.2c0,0-0.6,2.4-0.6,2.5c0.7,0.1,1.5,0.2,2.2,0.2C175,110.9,175.6,108.4,175.6,108.2z"/>
			<path class="st0" d="M171.8,108h-2.2c0,0-0.6,2.2-0.6,2.4c0.7,0.1,1.5,0.1,2.2,0.1C171.2,110.5,171.8,108.2,171.8,108z"/>
			<path class="st0" d="M168,107.8l-2.2-0.1c0,0-0.6,2.1-0.7,2.2c0.7,0.1,1.5,0.1,2.2,0.1C167.3,110,168,108,168,107.8z"/>
			<path class="st0" d="M164.2,107.7l-2.2-0.1c0,0-0.7,1.9-0.7,2.1c0.7,0.1,1.4,0.1,2.1,0.1C163.4,109.8,164.2,107.8,164.2,107.7z"
				/>
			<path class="st0" d="M160.4,107.5l-2.2-0.1c0,0-0.7,1.8-0.7,1.9c0.7,0.1,1.4,0.1,2.1,0.1C159.6,109.4,160.4,107.6,160.4,107.5z"
				/>
			<path class="st0" d="M156.6,107.3l-2.2-0.1c0,0-0.7,1.6-0.8,1.8c0.7,0.1,1.4,0.1,2.1,0.1L156.6,107.3z"/>
			<path class="st0" d="M152.8,107.1l-0.9,1.7c-0.7,0-1.4,0-2.1-0.1c0.2-0.6,0.5-1.1,0.8-1.6H152.8z"/>
			<path class="st0" d="M209.9,107.2c0.1-1.3,0-2.7-0.1-4l-2.2,0.1v3.8L209.9,107.2z"/>
			<path class="st0" d="M205.5,103.3l-2.2,0.1c0,0,0,3.5-0.1,3.6l2.3,0.1C205.5,107.2,205.6,103.8,205.5,103.3z"/>
			<path class="st0" d="M201.2,103.4l-2.2,0.1c0,0-0.1,3.4-0.1,3.5l2.3,0.1C201.2,107.1,201.3,103.8,201.2,103.4z"/>
			<path class="st0" d="M196.9,103.5l-2.2,0.1c0,0-0.1,3.2-0.2,3.3l2.3,0.1C196.8,107,197,103.9,196.9,103.5z"/>
			<path class="st0" d="M192.6,103.6l-2.2,0.1c0,0-0.2,3.1-0.2,3.2l2.3,0.1C192.4,106.9,192.7,103.9,192.6,103.6z"/>
			<path class="st0" d="M188.3,103.7l-2.2,0.1c0,0-0.2,2.9-0.3,3l2.3,0.1C188.2,105.8,188.3,104.8,188.3,103.7z"/>
			<path class="st0" d="M184,103.7l-2.2,0.1l-0.3,2.8l2.3,0.1C183.7,106.7,184.1,104,184,103.7z"/>
			<path class="st0" d="M179.8,103.8l-2.2,0.1c0,0-0.3,2.6-0.4,2.7l2.2,0.1C179.4,106.6,179.8,104,179.8,103.8z"/>
			<path class="st0" d="M175.5,103.9h-2.2l-0.4,2.5h2.2C175,106.5,175.5,104.1,175.5,103.9z"/>
			<path class="st0" d="M171.2,104H169c0,0-0.4,2.3-0.5,2.4h2.2C170.9,105.6,171.1,104.8,171.2,104z"/>
			<path class="st0" d="M166.9,104.1h-2.2l-0.5,2.2h2.2C166.3,106.3,167,104.2,166.9,104.1z"/>
			<path class="st0" d="M162.6,104.1h-2.2l-0.6,2h2.2C162.3,105.5,162.5,104.8,162.6,104.1z"/>
			<path class="st0" d="M158.3,104.2H156l-0.6,1.9h2.2C157.9,105.5,158.1,104.9,158.3,104.2z"/>
			<polygon class="st0" points="154.1,104.3 153.3,106 151.1,106 151.8,104.3 			"/>
			<path class="st0" d="M209.9,100.7c-0.1-1.3-0.3-2.6-0.6-3.9l-2.2,0.4c0,0,0.5,3.7,0.4,3.8L209.9,100.7z"/>
			<path class="st0" d="M204.8,97.1l-2.2,0.4c0,0,0.4,3.5,0.3,3.6l2.3-0.2C205.1,99.6,205,98.4,204.8,97.1z"/>
			<path class="st0" d="M200.2,97.5l-2.2,0.3c0,0,0.3,3.3,0.3,3.4l2.3-0.2C200.5,99.8,200.4,98.7,200.2,97.5z"/>
			<path class="st0" d="M195.7,97.9c0,0-2.1,0.3-2.2,0.3s0.2,3.2,0.2,3.3l2.2-0.2C196,100.2,195.9,99,195.7,97.9z"/>
			<path class="st0" d="M191.2,98.3c0,0-2.1,0.3-2.2,0.3s0.2,3,0.1,3.1l2.2-0.2C191.4,100.4,191.3,99.4,191.2,98.3z"/>
			<path class="st0" d="M186.6,98.7c0,0-2.1,0.3-2.2,0.3c0,1,0,1.9,0.1,2.9l2.2-0.2C186.8,100.7,186.7,99.7,186.6,98.7z"/>
			<path class="st0" d="M182.1,99c-0.7,0.1-1.4,0.2-2.1,0.3v2.8l2.1-0.2C182.2,100.9,182.2,100,182.1,99z"/>
			<path class="st0" d="M177.6,99.4c-0.7,0.1-1.4,0.2-2.1,0.3c0,0.9,0,1.7-0.1,2.6l2.1-0.1C177.6,101.3,177.6,100.3,177.6,99.4z"/>
			<path class="st0" d="M173,99.8l-2.1,0.2c0,0-0.1,2.4-0.1,2.5l2.1-0.1C172.8,102.3,173.1,99.9,173,99.8z"/>
			<path class="st0" d="M168.5,100.2l-2.1,0.2c0,0.1-0.2,2.3-0.2,2.3l2-0.1C168.2,102.5,168.5,100.3,168.5,100.2z"/>
			<path class="st0" d="M164,100.5c-0.7,0-1.4,0.1-2.1,0.2c-0.1,0.7-0.2,1.4-0.3,2.1l2-0.1C163.6,102.7,164,100.6,164,100.5z"/>
			<path class="st0" d="M159.4,100.9c-0.7,0-1.4,0.1-2.1,0.2c-0.1,0.7-0.2,1.3-0.3,2l2-0.1C159.1,102.3,159.2,101.6,159.4,100.9z"/>
			<path class="st0" d="M154.9,101.3l-0.6,1.8l-1.9,0.1c0.1-0.6,0.2-1.2,0.4-1.8C153.5,101.3,154.2,101.3,154.9,101.3z"/>
			<path class="st0" d="M194.1,159.4c0,0-1.8,4.9-13.7,17.3l-1.4-1.3c0,0,8.3-8.5,13.4-17L194.1,159.4z"/>
			<polygon class="st0" points="174.1,147 162,152.3 164.2,160.2 162.8,159.1 160.6,151.2 172.6,146 			"/>
			<polygon class="st0" points="176.6,148.5 164.8,155 166.3,162.3 164.9,161.2 162.6,153.4 175,147.5 			"/>
			<polygon class="st0" points="169.3,165.4 168.9,158.7 180.3,150.8 178.8,149.8 166.9,157.3 167.9,164.2 			"/>
			<polygon class="st0" points="172.2,168.4 173,162.5 184,153.1 182.5,152.2 171.2,161.1 170.9,167.2 			"/>
			<polygon class="st0" points="175.2,171.4 177.1,166.2 187.7,155.4 186.2,154.5 175.5,165 173.9,170.1 			"/>
			<polygon class="st0" points="178.4,174.6 181.3,170.1 191.6,157.9 190.2,156.9 180,169 177.1,173.2 			"/>
			<polygon class="st0" points="155.6,195.1 153.3,196.3 152.6,195.3 155,194 			"/>
			<path class="st0" d="M154.7,193.4l-0.5-1l-2.3,1.3l0.6,1L154.7,193.4z"/>
			<path class="st0" d="M153.8,191.8l-0.5-1.1l-2.3,1.4l0.6,1L153.8,191.8z"/>
			<path class="st0" d="M153,190.1l-0.5-1.1l-2.2,1.4l0.6,1L153,190.1z"/>
			<path class="st0" d="M152.1,188.4l-0.5-1.1l-2.1,1.5l0.5,1L152.1,188.4z"/>
			<path class="st0" d="M151.2,186.8l-0.5-1.1l-2,1.5l0.5,1.1L151.2,186.8z"/>
			<path class="st0" d="M150.4,185.1c-0.2-0.3-0.4-0.7-0.5-1.1l-1.9,1.6l0.5,1.1L150.4,185.1z"/>
			<path class="st0" d="M149.5,183.5c-0.2-0.4-0.4-0.8-0.5-1.2l-1.8,1.7l0.5,1.1L149.5,183.5z"/>
			<path class="st0" d="M148.7,181.8c-0.2-0.4-0.4-0.8-0.5-1.2l-1.7,1.7l0.5,1.1L148.7,181.8z"/>
			<polygon class="st0" points="159.8,192.8 157.5,194.2 156.8,193.2 159.2,191.8 			"/>
			<polygon class="st0" points="158.3,190.3 156,191.7 156.7,192.7 158.8,191.3 			"/>
			<polygon class="st0" points="157.4,188.7 155.1,190.2 155.8,191.2 157.9,189.8 			"/>
			<polygon class="st0" points="156.4,187.1 154.3,188.6 155,189.7 157,188.2 			"/>
			<polygon class="st0" points="155.5,185.6 153.5,187.1 154.1,188.2 156.1,186.7 			"/>
			<polygon class="st0" points="154.6,184 152.6,185.6 153.2,186.7 155.2,185.2 			"/>
			<polygon class="st0" points="153.7,182.4 151.8,184.1 152.4,185.2 154.3,183.6 			"/>
			<polygon class="st0" points="152.8,180.9 150.9,182.5 151.5,183.7 153.4,182.1 			"/>
			<polygon class="st0" points="151.9,179.3 150.1,181 150.7,182.2 152.5,180.6 			"/>
			<polygon class="st0" points="150.9,177.7 149.3,179.5 149.8,180.7 151.6,179 			"/>
			<polygon class="st0" points="163.6,190.4 161.5,191.9 160.7,191.1 162.9,189.4 			"/>
			<polygon class="st0" points="162.1,188.1 159.9,189.7 160.7,190.6 162.7,189.1 			"/>
			<polygon class="st0" points="161.2,186.8 159.1,188.4 159.9,189.4 161.9,187.7 			"/>
			<polygon class="st0" points="160.4,185.4 158.3,187.1 159.1,188.1 161,186.4 			"/>
			<polygon class="st0" points="159.5,184.1 157.5,185.8 158.3,186.8 160.2,185.1 			"/>
			<polygon class="st0" points="158.7,182.8 156.7,184.4 157.5,185.5 159.4,183.8 			"/>
			<polygon class="st0" points="157.8,181.5 156,183.1 156.7,184.2 158.5,182.5 			"/>
			<polygon class="st0" points="157,180.1 155.2,181.8 155.9,182.9 157.7,181.2 			"/>
			<polygon class="st0" points="156.1,178.8 154.4,180.5 155,181.6 156.8,179.9 			"/>
			<polygon class="st0" points="155.3,177.5 153.6,179.2 154.2,180.3 156,178.5 			"/>
			<polygon class="st0" points="154.4,176.1 152.8,177.8 153.4,179 155.1,177.2 			"/>
			<polygon class="st0" points="153.6,174.8 152,176.5 152.6,177.7 154.3,175.9 			"/>
			<polygon class="st0" points="167.4,187.7 165.3,189.3 164.5,188.5 166.7,186.8 			"/>
			<polygon class="st0" points="166.4,186.4 164.4,188 163.6,187.1 165.8,185.4 			"/>
			<polygon class="st0" points="165.5,185 163.5,186.7 162.7,185.7 164.8,184.1 			"/>
			<polygon class="st0" points="164.5,183.7 162.6,185.3 161.8,184.4 163.8,182.7 			"/>
			<polygon class="st0" points="163.6,182.3 161.7,184 160.9,183 162.9,181.3 			"/>
			<polygon class="st0" points="162.6,180.9 160.8,182.7 160,181.7 161.9,179.9 			"/>
			<polygon class="st0" points="161.6,179.6 159.9,181.3 159.1,180.3 160.9,178.6 			"/>
			<polygon class="st0" points="160.7,178.2 159,180 158.2,178.9 159.9,177.2 			"/>
			<polygon class="st0" points="159.7,176.9 158.1,178.7 157.3,177.6 159,175.8 			"/>
			<polygon class="st0" points="158.7,175.5 157.1,177.3 156.4,176.2 158,174.4 			"/>
			<polygon class="st0" points="157.8,174.1 156.2,176 155.5,174.9 157,173.1 			"/>
			<polygon class="st0" points="156.8,172.8 155.3,174.7 154.5,173.5 156.1,171.7 			"/>
			<polygon class="st0" points="171.1,185 169.1,186.6 168.3,185.7 170.4,184.1 			"/>
			<polygon class="st0" points="170.2,183.8 168.2,185.4 167.4,184.6 169.5,182.9 			"/>
			<polygon class="st0" points="169.3,182.6 167.3,184.3 166.5,183.4 168.6,181.7 			"/>
			<polygon class="st0" points="168.4,181.4 166.5,183.1 165.7,182.2 167.7,180.5 			"/>
			<polygon class="st0" points="167.4,180.3 165.6,182 164.8,181.1 166.7,179.3 			"/>
			<polygon class="st0" points="166.5,179.1 164.7,180.8 163.9,179.9 165.8,178.2 			"/>
			<polygon class="st0" points="165.6,177.9 163.8,179.6 163.1,178.7 164.9,177 			"/>
			<polygon class="st0" points="164.7,176.7 163,178.5 162.2,177.6 163.9,175.8 			"/>
			<polygon class="st0" points="163.7,175.6 162.1,177.3 161.3,176.4 163,174.6 			"/>
			<polygon class="st0" points="162.8,174.4 161.2,176.1 160.5,175.2 162.1,173.4 			"/>
			<polygon class="st0" points="161.9,173.2 160.3,175 159.6,174 161.2,172.3 			"/>
			<polygon class="st0" points="161,172 159.5,173.8 158.7,172.9 160.2,171.1 			"/>
			<polygon class="st0" points="160.1,170.9 158.6,172.7 157.9,171.7 159.3,169.9 			"/>
			<polygon class="st0" points="159.1,169.7 157.7,171.5 157,170.5 158.4,168.7 			"/>
			<polygon class="st0" points="173.5,183 172.1,184.4 171.3,183.5 172.7,182.2 			"/>
			<polygon class="st0" points="172.4,181.7 171,183 170.2,182.1 171.6,180.9 			"/>
			<polygon class="st0" points="171.3,180.4 169.9,181.6 169.1,180.7 170.5,179.5 			"/>
			<polygon class="st0" points="170.2,179.1 168.8,180.2 168,179.3 169.4,178.2 			"/>
			<polygon class="st0" points="169.1,177.8 167.7,178.8 166.9,177.9 168.3,176.9 			"/>
			<polygon class="st0" points="168,176.5 166.5,177.4 165.8,176.5 167.2,175.6 			"/>
			<polygon class="st0" points="166.9,175.2 165.4,176.1 164.7,175.1 166.1,174.3 			"/>
			<polygon class="st0" points="165.8,173.9 164.3,174.7 163.5,173.7 165,173 			"/>
			<polygon class="st0" points="164.7,172.6 163.2,173.3 162.4,172.3 163.9,171.7 			"/>
			<polygon class="st0" points="163.6,171.3 162,171.9 161.3,170.9 162.8,170.4 			"/>
			<polygon class="st0" points="162.5,170 160.9,170.5 160.2,169.5 161.7,169.1 			"/>
			<polygon class="st0" points="161.4,168.7 159.8,169.1 159.1,168.1 160.6,167.8 			"/>
			<polygon class="st0" points="175.9,181 174.5,182.4 173.7,181.5 175.1,180.2 			"/>
			<polygon class="st0" points="174.8,179.8 173.4,181.1 172.6,180.2 174,179 			"/>
			<polygon class="st0" points="173.8,178.6 172.4,179.8 171.5,179 172.9,177.7 			"/>
			<polygon class="st0" points="172.7,177.4 171.3,178.6 170.4,177.7 171.8,176.5 			"/>
			<polygon class="st0" points="171.6,176.2 170.2,177.3 169.4,176.4 170.8,175.3 			"/>
			<polygon class="st0" points="170.5,175 169.2,176 168.3,175.1 169.7,174.1 			"/>
			<polygon class="st0" points="169.5,173.8 168.1,174.7 167.2,173.8 168.6,172.9 			"/>
			<polygon class="st0" points="168.4,172.6 167,173.5 166.1,172.5 167.5,171.7 			"/>
			<polygon class="st0" points="167.3,171.4 165.9,172.2 165,171.2 166.5,170.5 			"/>
			<polygon class="st0" points="166.2,170.3 164.9,170.9 163.9,169.9 165.4,169.2 			"/>
			<polygon class="st0" points="165.2,169.1 163.8,169.6 162.9,168.6 164.3,168 			"/>
			<polygon class="st0" points="164.1,167.9 162.7,168.4 161.8,167.3 163.2,166.8 			"/>
			<polygon class="st0" points="178.1,179.1 176.7,180.5 175.9,179.6 177.3,178.2 			"/>
			<polygon class="st0" points="177,177.9 175.6,179.2 174.8,178.3 176.1,177 			"/>
			<polygon class="st0" points="175.8,176.7 174.5,177.9 173.6,177 175,175.8 			"/>
			<polygon class="st0" points="174.7,175.5 173.3,176.6 172.5,175.7 173.9,174.6 			"/>
			<polygon class="st0" points="173.6,174.2 172.2,175.3 171.3,174.4 172.7,173.4 			"/>
			<polygon class="st0" points="172.4,173 171.1,174 170.2,173.1 171.6,172.1 			"/>
			<polygon class="st0" points="171.3,171.8 169.9,172.7 169,171.8 170.4,170.9 			"/>
			<polygon class="st0" points="170.2,170.6 168.8,171.4 167.9,170.5 169.3,169.7 			"/>
			<polygon class="st0" points="169.1,169.4 167.7,170.1 166.7,169.2 168.2,168.5 			"/>
			<polygon class="st0" points="167.9,168.2 166.5,168.8 165.6,167.8 167,167.2 			"/>
			<polygon class="st0" points="166.8,167 165.4,167.5 164.4,166.5 165.9,166 			"/>
			<polygon class="st0" points="180.4,176.7 179.1,178.2 178.3,177.4 179.5,175.9 			"/>
			<polygon class="st0" points="179.3,175.7 178,177 177.1,176.2 178.4,174.8 			"/>
			<polygon class="st0" points="178.2,174.6 176.9,175.8 176,175 177.3,173.7 			"/>
			<polygon class="st0" points="177.1,173.5 175.8,174.7 174.9,173.8 176.2,172.6 			"/>
			<polygon class="st0" points="176,172.4 174.7,173.5 173.8,172.6 175.1,171.6 			"/>
			<polygon class="st0" points="174.9,171.4 173.6,172.4 172.6,171.5 174,170.5 			"/>
			<polygon class="st0" points="173.8,170.3 172.5,171.2 171.5,170.3 172.8,169.4 			"/>
			<polygon class="st0" points="172.7,169.2 171.3,170 170.4,169.1 171.7,168.3 			"/>
			<polygon class="st0" points="171.6,168.2 170.2,168.9 169.3,167.9 170.6,167.2 			"/>
			<polygon class="st0" points="170.5,167.1 169.1,167.7 168.2,166.8 169.5,166.1 			"/>
			<polygon class="st0" points="169.4,166 168,166.5 167,165.6 168.4,165 			"/>
			<path class="st0" d="M208.9,90.5c0,0-2.6-18.1-9.2-29.7c0,0-1.3,0.4-1.7,0.6c4.5,10.2,6.6,15.5,9.2,29.3L208.9,90.5z"/>
			<path class="st0" d="M205.5,90.9c0-0.5-2.6-17.7-8.9-28.7c-0.1,0.1-1.3,0.4-1.7,0.6c4.1,9.3,6.5,15.2,8.9,28.3
				C204.4,91.1,204.9,91,205.5,90.9z"/>
			<path class="st0" d="M202,91.4c-0.1-1-2.7-17.4-8.6-27.7c-0.3,0.1-1.3,0.5-1.6,0.6c3.6,8.4,6.4,15,8.6,27.3
				C200.9,91.6,201.5,91.5,202,91.4z"/>
			<path class="st0" d="M198.6,91.9c-0.1-1.5-2.7-17-8.3-26.7c-0.5,0.2-1.1,0.4-1.6,0.6c3.2,7.4,6.3,14.7,8.2,26.3
				C197.5,92.1,198,92,198.6,91.9z"/>
			<path class="st0" d="M195.2,92.4c-0.2-2-2.8-16.7-7.9-25.6c-0.6,0.2-1.4,0.5-1.6,0.6c2.8,6.5,6.2,14.5,7.9,25.3
				C193.5,92.6,194.7,92.5,195.2,92.4z"/>
			<path class="st0" d="M191.8,92.9c-0.2-2.5-2.8-16.3-7.6-24.6c-0.7,0.3-1.4,0.5-1.6,0.6c2.4,5.6,6.1,14.2,7.6,24.2
				C190.1,93.1,191.2,93,191.8,92.9z"/>
			<path class="st0" d="M188.4,93.4c-0.2-3.1-2.8-15.9-7.3-23.6c-0.8,0.3-1.4,0.5-1.6,0.6c2,4.7,5.9,14,7.2,23.2
				C187.3,93.6,187.8,93.5,188.4,93.4z"/>
			<path class="st0" d="M184.9,93.9c-0.3-3.6-2.9-15.6-7-22.6c-1,0.4-1.4,0.5-1.6,0.6c1.6,3.7,5.8,13.7,6.9,22.2
				C183.8,94.1,184.3,94,184.9,93.9z"/>
			<path class="st0" d="M181.5,94.4c-0.3-4.1-2.9-15.2-6.7-21.6c-1.1,0.4-1.4,0.5-1.6,0.6c1.2,2.8,5.7,13.5,6.6,21.2
				C180.4,94.6,180.9,94.5,181.5,94.4z"/>
			<path class="st0" d="M178.1,94.9c-0.4-4.6-3-14.9-6.3-20.5c-1.2,0.5-1.5,0.5-1.5,0.6c0.8,1.9,5.6,13.2,6.3,20.2
				C176.5,95.1,177.1,95.1,178.1,94.9z"/>
			<path class="st0" d="M174.7,95.4c-0.4-5.1-3-14.5-6-19.5c-0.5,0.2-1,0.4-1.5,0.6c0.4,0.9,5.5,13,5.9,19.2
				C173.1,95.6,173.5,95.6,174.7,95.4z"/>
			<path class="st0" d="M171.3,95.9c-0.4-5.6-3-14.2-5.7-18.5l-1.5,0.6c0,0,5.4,12.7,5.6,18.2C169.7,96.1,170,96.1,171.3,95.9z"/>
			<path class="st0" d="M168.6,93.5c0,0-2.2-9.5-3.9-12.6c-0.1,0-1.2,0.4-1.2,0.4c1.5,4,2.8,8.2,3.8,12.4L168.6,93.5z"/>
			<path class="st0" d="M166.6,93.9c0,0-2.2-9.5-3.9-12.6c-0.1,0-1.2,0.4-1.2,0.4c1.5,4,2.8,8.2,3.8,12.4L166.6,93.9z"/>
			<path class="st0" d="M164.8,94.4c0,0-2.2-9.5-3.9-12.6c-0.1,0-1.2,0.4-1.2,0.4c1.5,4,2.8,8.2,3.8,12.4L164.8,94.4z"/>
			<polygon class="st0" points="162.4,91.8 160.5,85.7 159.4,86 161.3,92 			"/>
			<polygon class="st0" points="160.5,92.3 158.6,86.2 157.5,86.5 159.4,92.5 			"/>
			<polygon class="st0" points="158.6,93 156.7,86.9 155.6,87.3 157.5,93.3 			"/>
			<polygon class="st0" points="155.7,89.6 154.2,90.1 154.7,91.9 156.3,91.5 			"/>
			<polygon class="st0" points="154.1,92.1 153.5,90.4 152,90.9 152.5,92.4 			"/>
			<polygon class="st0" points="151.8,92.7 151.4,91.1 149.8,91.6 150.3,93 			"/>
			<polygon class="st0" points="149.6,93.3 149.2,91.9 147.7,92.4 148,93.6 			"/>
			<polygon class="st0" points="147.4,93.8 147.1,92.7 145.5,93.2 145.8,94.2 			"/>
			<polygon class="st0" points="145.2,94.4 144.9,93.5 143.4,94 143.6,94.8 			"/>
			<polygon class="st0" points="142.9,95 142.7,94.2 141.2,94.8 141.4,95.3 			"/>
			<polygon class="st0" points="140.7,95.6 140.6,95 139,95.5 139.1,95.9 			"/>
			<polygon class="st0" points="138.5,96.1 136.9,96.5 136.9,96.3 138.4,95.8 			"/>
			<polygon class="st0" points="163.9,21.5 138.4,55.8 140.1,56.2 166.7,23.5 			"/>
			<polygon class="st0" points="158.9,18.2 135.8,55 137.3,55.5 162,20.2 			"/>
			<polygon class="st0" points="153.5,15.1 133.3,53.7 134.8,54.6 156.8,17 			"/>
			<polygon class="st0" points="147.8,12.4 131.1,51.9 132.3,53.1 151.3,14.1 			"/>
			<polygon class="st0" points="142.6,10.2 129.2,50 130.3,51.3 145.8,11.4 			"/>
			<path class="st0" d="M138,8.4c-1.2-0.5-2.5-0.8-3.8-1.1l-0.6,2.1c0,0,3.5,1.1,3.6,1.2L138,8.4z"/>
			<path class="st0" d="M133.3,10.5l-0.6,2.1c0,0,3.4,1.1,3.5,1.2l0.8-2.2C135.8,11.1,134.6,10.8,133.3,10.5z"/>
			<path class="st0" d="M132.4,13.6l-0.6,2.1c0,0,3.3,1.1,3.3,1.2l0.8-2.2C135.9,14.8,132.8,13.6,132.4,13.6z"/>
			<path class="st0" d="M131.4,16.8l-0.6,2.1c0,0,3.1,1.2,3.2,1.2l0.8-2.2C134.8,18,131.9,16.8,131.4,16.8z"/>
			<path class="st0" d="M130.5,20l-0.6,2.1c0,0,3,1.2,3.1,1.2l0.8-2.2C132.7,20.6,131.6,20.3,130.5,20z"/>
			<path class="st0" d="M129.6,23.1l-0.6,2.1l2.9,1.2l0.8-2.2C132.7,24.3,130,23.1,129.6,23.1z"/>
			<path class="st0" d="M128.7,26.3l-0.6,2.1l2.8,1.2l0.8-2.2C131.7,27.5,129,26.3,128.7,26.3z"/>
			<path class="st0" d="M127.8,29.5l-0.6,2.1c0,0,2.6,1.2,2.7,1.3l0.8-2.2C129.8,30.2,128.8,29.8,127.8,29.5z"/>
			<path class="st0" d="M126.9,32.6l-0.6,2.1c0,0,2.5,1.2,2.6,1.3l0.8-2.2C129.6,33.8,127.2,32.6,126.9,32.6z"/>
			<path class="st0" d="M126,35.8l-0.6,2.1c0,0,2.4,1.2,2.4,1.3l0.8-2.1C127.8,36.6,126.9,36.2,126,35.8z"/>
			<path class="st0" d="M125.1,39l-0.6,2.1c0,0,2.3,1.2,2.3,1.3l0.8-2.1C126.8,39.8,126,39.4,125.1,39z"/>
			<path class="st0" d="M124.1,42.1l-0.6,2.1c0,0,2.1,1.2,2.2,1.3l0.8-2.1C125.7,42.9,124.9,42.5,124.1,42.1z"/>
			<path class="st0" d="M123.2,45.3l-0.6,2.1c0.7,0.4,1.4,0.8,2,1.3l0.8-2.1C124.7,46.1,124,45.7,123.2,45.3z"/>
			<path class="st0" d="M122.3,48.5l-0.7,2.1l1.9,1.3l0.8-2.1C123.7,49.3,123,48.9,122.3,48.5z"/>
			<path class="st0" d="M121.4,51.6l-0.7,2.1l1.8,1.3l0.7-2.1C122.6,52.4,122,52,121.4,51.6z"/>
			<path class="st0" d="M120.5,54.8l-0.7,2.1l1.6,1.3l0.7-2.1C122.2,56,120.6,54.8,120.5,54.8z"/>
			<path class="st0" d="M119.6,58l-0.7,2.1l1.5,1.3l0.7-2.1C121.2,59.2,119.6,58,119.6,58z"/>
			<path class="st0" d="M118.7,61.1l-0.7,2l1.4,1.3l0.7-2.1C119.6,61.9,119.1,61.5,118.7,61.1z"/>
			<polygon class="st0" points="117.7,64.3 119,65.6 118.3,67.6 117.1,66.3 			"/>
			<path class="st0" d="M131.8,6.6c-1.3-0.4-2.6-0.6-3.9-0.8L127.5,8c0,0,3.6,0.8,3.7,0.9L131.8,6.6z"/>
			<path class="st0" d="M127.1,9.5l-0.4,2.2c0,0,3.4,0.9,3.5,0.9s0.6-2.2,0.6-2.3C129.6,9.9,128.4,9.7,127.1,9.5z"/>
			<path class="st0" d="M126.2,13.3l-0.4,2.2c0,0,3.3,0.9,3.4,1l0.6-2.2C128.6,13.8,127.4,13.5,126.2,13.3z"/>
			<path class="st0" d="M125.4,17.1l-0.4,2.2c0,0,3.1,0.9,3.2,1l0.6-2.2C127.7,17.6,126.6,17.3,125.4,17.1z"/>
			<path class="st0" d="M124.5,20.9l-0.4,2.2c0,0,3,0.9,3.1,1l0.6-2.2C126.7,21.5,125.6,21.1,124.5,20.9z"/>
			<path class="st0" d="M123.7,24.6l-0.5,2.2c0,0,2.8,0.9,2.9,1l0.6-2.2C126.7,25.6,124,24.6,123.7,24.6z"/>
			<path class="st0" d="M122.9,28.4l-0.5,2.2c0,0,2.7,0.9,2.8,1s0.6-2.1,0.6-2.2S123.2,28.4,122.9,28.4z"/>
			<path class="st0" d="M122,32.2l-0.5,2.2c0,0,2.5,1,2.6,1c0.3-0.7,0.5-1.5,0.6-2.2C123.8,32.8,122.9,32.4,122,32.2z"/>
			<path class="st0" d="M121.2,36l-0.5,2.2c0,0,2.4,1,2.5,1c0.3-0.7,0.5-1.5,0.6-2.2C123,36.5,122.1,36.2,121.2,36z"/>
			<path class="st0" d="M120.4,39.8l-0.5,2.2c0,0,2.2,1,2.3,1c0.2-0.7,0.4-1.4,0.6-2.1C122.1,40.4,121.3,40,120.4,39.8z"/>
			<path class="st0" d="M119.5,43.5l-0.5,2.2c0,0,2.1,1,2.2,1.1c0.3-0.7,0.5-1.4,0.6-2.1C121.1,44.2,120.3,43.8,119.5,43.5z"/>
			<path class="st0" d="M118.7,47.3l-0.5,2.2l2.1,1.1c0.3-0.7,0.5-1.4,0.6-2.1C120.2,48,119.5,47.6,118.7,47.3z"/>
			<path class="st0" d="M117.8,51.1l-0.6,2.2c0,0,1.8,1,1.9,1.1s0.5-2,0.6-2.1S117.9,51.1,117.8,51.1z"/>
			<path class="st0" d="M117,54.9l-0.6,2.2c0,0,1.7,1.1,1.8,1.1s0.5-2,0.6-2.1C118.3,55.6,117.7,55.2,117,54.9z"/>
			<path class="st0" d="M116.2,58.6l-0.6,2.2c0,0,1.5,1.1,1.6,1.1s0.5-2,0.6-2.1S116.2,58.6,116.2,58.6z"/>
			<path class="st0" d="M115.3,62.4c0,0,1.6,1.1,1.5,1.3s-0.5,2.1-0.6,2.1s-1.5-1.1-1.5-1.1L115.3,62.4z"/>
			<path class="st0" d="M125.5,5.2c-1.3-0.3-2.6-0.5-3.9-0.6l-0.3,2.2c0,0,3.6,0.6,3.7,0.7L125.5,5.2z"/>
			<path class="st0" d="M121,8.3l-0.3,2.2c0,0,3.5,0.6,3.6,0.7l0.5-2.3C123.5,8.6,122.3,8.4,121,8.3z"/>
			<path class="st0" d="M120.4,12.1l-0.3,2.2c0,0,3.3,0.7,3.4,0.7l0.5-2.3C122.8,12.4,121.6,12.2,120.4,12.1z"/>
			<path class="st0" d="M119.8,15.8l-0.3,2.2c0,0,3.2,0.7,3.3,0.8l0.4-2.3C122.1,16.2,120.9,15.9,119.8,15.8z"/>
			<path class="st0" d="M119.2,19.6l-0.3,2.2c0,0,3,0.7,3.1,0.8l0.4-2.2C121.4,20,120.3,19.8,119.2,19.6z"/>
			<path class="st0" d="M118.6,23.3l-0.3,2.2c0,0,2.9,0.7,3,0.8c0.2-0.7,0.3-1.5,0.4-2.2C121.7,24.1,118.9,23.3,118.6,23.3z"/>
			<path class="st0" d="M118,27.1l-0.3,2.2c0,0,2.7,0.7,2.9,0.8c0.2-0.7,0.3-1.5,0.4-2.2C120,27.5,119,27.3,118,27.1z"/>
			<path class="st0" d="M117.4,30.8l-0.3,2.2c0,0,2.6,0.8,2.7,0.8c0.2-0.7,0.3-1.5,0.4-2.2C120.2,31.6,117.7,30.8,117.4,30.8z"/>
			<path class="st0" d="M116.8,34.6l-0.3,2.2c0,0,2.4,0.8,2.6,0.8c0.2-0.7,0.3-1.5,0.4-2.2C118.6,35,117.7,34.8,116.8,34.6z"/>
			<path class="st0" d="M116.2,38.3l-0.3,2.2c0,0,2.3,0.8,2.4,0.9c0.2-0.7,0.3-1.5,0.4-2.2C118.7,39.2,116.4,38.3,116.2,38.3z"/>
			<path class="st0" d="M115.7,42.1l-0.3,2.2c0,0,2.1,0.8,2.3,0.9c0.2-0.7,0.3-1.4,0.4-2.1C117.3,42.7,116.5,42.4,115.7,42.1z"/>
			<path class="st0" d="M115.1,45.8l-0.3,2.2c0,0,2,0.9,2.1,0.9c0.2-0.7,0.3-1.4,0.4-2.1C117.3,46.8,115.2,45.8,115.1,45.8z"/>
			<path class="st0" d="M114.5,49.5l-0.3,2.2c0.6,0.3,1.3,0.6,2,0.9c0.2-0.7,0.3-1.4,0.4-2.1C116.6,50.5,114.6,49.5,114.5,49.5z"/>
			<path class="st0" d="M113.9,53.3l-0.3,2.2c0,0,1.7,0.9,1.8,0.9c0.2-0.7,0.3-1.4,0.4-2.1L113.9,53.3z"/>
			<path class="st0" d="M113.3,57l-0.3,2.2c0,0,1.5,0.9,1.7,1c0.1-0.7,0.2-1.4,0.3-2.1L113.3,57z"/>
			<path class="st0" d="M112.7,60.8l1.6,1.1c-0.1,0.7-0.2,1.4-0.3,2.1c-0.1,0-1.5-1-1.5-1L112.7,60.8z"/>
			<path class="st0" d="M119,4.1c-1.3-0.2-2.7-0.3-4-0.3L114.9,6c0,0,3.7,0.4,3.8,0.4L119,4.1z"/>
			<path class="st0" d="M114.7,8.1l-0.1,2.2c0,0,3.5,0.4,3.6,0.5l0.3-2.3C117.3,8.2,116,8.1,114.7,8.1z"/>
			<path class="st0" d="M114.3,12.3l-0.1,2.2c0,0,3.4,0.4,3.4,0.5l0.3-2.3C116.7,12.5,115.5,12.4,114.3,12.3z"/>
			<path class="st0" d="M113.9,16.6l-0.1,2.2c0,0,3.2,0.5,3.3,0.5l0.3-2.3C117.3,17.1,114.3,16.5,113.9,16.6z"/>
			<path class="st0" d="M113.5,20.9l-0.1,2.2c0,0,3,0.5,3.1,0.6l0.3-2.3C115.7,21.2,114.6,21,113.5,20.9z"/>
			<path class="st0" d="M113.1,25.1l-0.2,2.2l2.9,0.6l0.3-2.3C116.2,25.7,113.4,25,113.1,25.1z"/>
			<path class="st0" d="M112.7,29.4l-0.2,2.2c0,0,2.7,0.6,2.8,0.6l0.3-2.2C114.7,29.7,113.7,29.5,112.7,29.4z"/>
			<path class="st0" d="M112.4,33.7l-0.2,2.2c0.9,0.2,1.7,0.4,2.6,0.7l0.3-2.2C114.2,34,113.3,33.8,112.4,33.7z"/>
			<path class="st0" d="M112,37.9l-0.2,2.2c0,0,2.4,0.7,2.5,0.7l0.3-2.2C114.5,38.6,112.2,37.9,112,37.9z"/>
			<path class="st0" d="M111.6,42.2l-0.2,2.2l2.3,0.7l0.3-2.2C113.2,42.6,112.4,42.4,111.6,42.2z"/>
			<path class="st0" d="M111.2,46.4l-0.2,2.2c0.7,0.2,1.4,0.5,2.1,0.8l0.3-2.2C113.4,47.3,111.3,46.4,111.2,46.4z"/>
			<path class="st0" d="M110.8,50.7l-0.2,2.2c0,0,1.9,0.8,2,0.8l0.3-2.2C112.2,51.3,111.5,51,110.8,50.7z"/>
			<path class="st0" d="M110.4,55l-0.2,2.2L112,58l0.3-2.1C112.2,55.9,110.4,55,110.4,55z"/>
			<polygon class="st0" points="110,59.2 111.7,60.2 111.4,62.3 109.8,61.5 			"/>
			<path class="st0" d="M112.6,3.4c0,0-3.5,0-4,0.1l0.1,2.2c0,0,3.7-0.1,3.8,0L112.6,3.4z"/>
			<path class="st0" d="M108.4,8.1l0.1,2.2c0,0,3.5,0,3.6,0.1l0.1-2.3C110.9,7.9,109.7,7.9,108.4,8.1z"/>
			<path class="st0" d="M108.3,12.6l0.1,2.2l3.5,0.1l0.1-2.3C111.9,12.6,108.7,12.5,108.3,12.6z"/>
			<path class="st0" d="M108.2,17.2l0.1,2.2c0,0,3.2,0.1,3.3,0.2l0.1-2.2C110.6,17.1,109.4,17.1,108.2,17.2z"/>
			<path class="st0" d="M108.1,21.7c0,0.7,0,1.5,0.1,2.2l3.1,0.2l0.1-2.2C110.3,21.8,109.2,21.7,108.1,21.7z"/>
			<path class="st0" d="M108,26.3c0,0.7,0,1.5,0.1,2.2l2.9,0.2l0.1-2.2C110.1,26.4,109,26.3,108,26.3z"/>
			<path class="st0" d="M107.8,30.8V33c0,0,2.7,0.3,2.8,0.3l0.1-2.1C109.8,30.9,108.8,30.8,107.8,30.8z"/>
			<path class="st0" d="M107.7,35.4v2.2c0,0,2.5,0.3,2.6,0.3l0.1-2.1C109.5,35.6,108.6,35.4,107.7,35.4z"/>
			<path class="st0" d="M107.6,39.9V42l2.4,0.4l0.1-2.1C110.1,40.4,107.8,39.8,107.6,39.9z"/>
			<path class="st0" d="M107.5,44.5c0,0.7,0,1.4,0,2.1c0.8,0.2,1.5,0.3,2.3,0.4l0.1-2C109.1,44.8,108.3,44.6,107.5,44.5z"/>
			<path class="st0" d="M107.4,49c0,0.7,0,1.4,0,2.1c0.7,0.2,1.4,0.4,2.1,0.5l0.1-2C109.5,49.6,107.4,49,107.4,49z"/>
			<path class="st0" d="M107.2,53.6l-0.1,2.1c0.6,0.2,1.3,0.4,1.9,0.5l0.1-2C108.5,53.9,107.9,53.7,107.2,53.6z"/>
			<path class="st0" d="M107.1,58.1l1.8,0.8l-0.1,1.9c-0.6-0.2-1.1-0.4-1.7-0.6C107.1,59.5,107,58.8,107.1,58.1z"/>
			<path class="st0" d="M169.2,25.5c0,0,4.6,2.3,15.7,15.5l-1.4,1.2c0,0-7.5-9.2-15.5-15.2L169.2,25.5z"/>
			<polygon class="st0" points="154.7,44 158.6,56.6 166.6,55.3 165.4,56.5 157.4,57.9 153.5,45.4 			"/>
			<polygon class="st0" points="156.4,41.7 161.6,54.1 169,53.4 167.8,54.7 159.8,56.1 155.3,43.1 			"/>
			<polygon class="st0" points="172.4,50.8 165.7,50.5 159.1,38.3 158,39.7 164.1,52.3 171.1,52 			"/>
			<polygon class="st0" points="175.7,48.2 169.9,46.8 161.8,34.8 160.7,36.2 168.4,48.4 174.4,49.4 			"/>
			<polygon class="st0" points="179.1,45.6 174.1,43.2 164.5,31.4 163.4,32.8 172.7,44.6 177.6,46.7 			"/>
			<polygon class="st0" points="182.6,42.8 178.4,39.3 167.4,27.8 166.3,29.1 177.1,40.5 181.1,43.9 			"/>
			<polygon class="st0" points="196.6,59.2 198,61.4 197,62.1 195.6,59.7 			"/>
			<polygon class="st0" points="194.2,60.4 195.6,62.8 196.6,62.1 195.2,59.9 			"/>
			<polygon class="st0" points="192.8,61.1 194.2,63.4 195.2,62.8 193.8,60.6 			"/>
			<polygon class="st0" points="191.4,61.8 192.8,64 193.8,63.4 192.4,61.3 			"/>
			<polygon class="st0" points="189.9,62.5 191.4,64.7 192.4,64.1 191,62 			"/>
			<polygon class="st0" points="188.5,63.3 190,65.3 191.1,64.7 189.6,62.7 			"/>
			<polygon class="st0" points="187.1,64 188.6,66 189.7,65.4 188.2,63.4 			"/>
			<polygon class="st0" points="185.7,64.7 187.2,66.6 188.3,66.1 186.8,64.1 			"/>
			<polygon class="st0" points="184.3,65.4 185.8,67.3 186.9,66.7 185.4,64.8 			"/>
			<polygon class="st0" points="182.9,66.1 184.4,67.9 185.5,67.4 184,65.5 			"/>
			<polygon class="st0" points="181.5,66.8 183,68.6 184.2,68 182.6,66.2 			"/>
			<polygon class="st0" points="180,67.5 181.6,69.2 182.8,68.7 181.2,66.9 			"/>
			<polygon class="st0" points="194.4,55.1 195.8,57.3 194.8,58 193.4,55.7 			"/>
			<polygon class="st0" points="193,55.9 194.4,58.1 193.4,58.8 191.9,56.5 			"/>
			<polygon class="st0" points="191.5,56.7 192.9,58.9 191.9,59.5 190.5,57.3 			"/>
			<polygon class="st0" points="190,57.5 191.5,59.6 190.5,60.3 189,58.1 			"/>
			<polygon class="st0" points="188.6,58.3 190.1,60.4 189,61 187.5,58.9 			"/>
			<polygon class="st0" points="187.1,59.1 188.7,61.1 187.6,61.8 186.1,59.7 			"/>
			<polygon class="st0" points="185.7,60 187.2,61.9 186.1,62.6 184.6,60.6 			"/>
			<polygon class="st0" points="184.2,60.8 185.8,62.7 184.7,63.3 183.1,61.4 			"/>
			<polygon class="st0" points="182.8,61.6 184.4,63.4 183.2,64.1 181.6,62.2 			"/>
			<polygon class="st0" points="181.3,62.4 183,64.2 181.8,64.8 180.2,63 			"/>
			<polygon class="st0" points="179.8,63.2 181.5,64.9 180.3,65.6 178.7,63.8 			"/>
			<polygon class="st0" points="178.4,64 180.1,65.7 178.9,66.3 177.2,64.6 			"/>
			<polygon class="st0" points="192.1,51.1 193.5,53.3 192.5,54 191.1,51.7 			"/>
			<polygon class="st0" points="190.8,51.9 192.2,54 191.3,54.8 189.8,52.5 			"/>
			<polygon class="st0" points="189.5,52.7 191,54.8 190,55.5 188.5,53.3 			"/>
			<polygon class="st0" points="188.3,53.5 189.7,55.5 188.8,56.2 187.3,54.1 			"/>
			<polygon class="st0" points="187,54.3 188.5,56.3 187.5,57 186,54.9 			"/>
			<polygon class="st0" points="185.7,55 187.2,57 186.2,57.7 184.7,55.7 			"/>
			<polygon class="st0" points="184.5,55.8 186,57.8 185,58.4 183.4,56.5 			"/>
			<polygon class="st0" points="183.2,56.6 184.7,58.5 183.7,59.2 182.2,57.2 			"/>
			<polygon class="st0" points="181.9,57.4 183.5,59.2 182.5,59.9 180.9,58 			"/>
			<polygon class="st0" points="180.6,58.2 182.2,60 181.2,60.6 179.6,58.8 			"/>
			<polygon class="st0" points="179.4,59 181,60.7 179.9,61.4 178.3,59.6 			"/>
			<polygon class="st0" points="178.1,59.8 179.7,61.5 178.7,62.1 177.1,60.4 			"/>
			<polygon class="st0" points="176.8,60.6 178.5,62.2 177.4,62.9 175.8,61.2 			"/>
			<polygon class="st0" points="175.6,61.4 177.2,63 176.2,63.6 174.5,62 			"/>
			<polygon class="st0" points="190.4,48.5 191.6,50 190.7,50.7 189.4,49.2 			"/>
			<polygon class="st0" points="189,49.5 190.1,51 189.1,51.7 188,50.2 			"/>
			<polygon class="st0" points="187.6,50.4 188.6,52 187.6,52.7 186.6,51.1 			"/>
			<polygon class="st0" points="186.2,51.4 187.1,52.9 186.1,53.6 185.2,52.1 			"/>
			<polygon class="st0" points="184.7,52.3 185.6,53.9 184.6,54.6 183.8,53 			"/>
			<polygon class="st0" points="183.3,53.3 184.1,54.8 183.1,55.5 182.3,54 			"/>
			<polygon class="st0" points="181.9,54.2 182.6,55.8 181.6,56.5 180.9,54.9 			"/>
			<polygon class="st0" points="180.5,55.2 181.1,56.8 180.1,57.4 179.5,55.9 			"/>
			<polygon class="st0" points="179.1,56.2 179.6,57.7 178.6,58.4 178.1,56.8 			"/>
			<polygon class="st0" points="177.7,57.1 178.1,58.7 177.1,59.3 176.7,57.8 			"/>
			<polygon class="st0" points="176.3,58.1 176.6,59.7 175.5,60.3 175.3,58.7 			"/>
			<polygon class="st0" points="174.9,59 175.1,60.6 174,61.2 173.8,59.6 			"/>
			<polygon class="st0" points="188.7,45.9 189.9,47.5 188.9,48.2 187.7,46.7 			"/>
			<polygon class="st0" points="187.4,46.9 188.5,48.4 187.5,49.1 186.4,47.6 			"/>
			<polygon class="st0" points="186.1,47.8 187.1,49.3 186.1,50 185.1,48.5 			"/>
			<polygon class="st0" points="184.8,48.7 185.7,50.2 184.7,51 183.8,49.5 			"/>
			<polygon class="st0" points="183.4,49.7 184.3,51.2 183.3,51.9 182.4,50.4 			"/>
			<polygon class="st0" points="182.1,50.6 183,52.1 181.9,52.9 181.1,51.3 			"/>
			<polygon class="st0" points="180.8,51.5 181.6,53 180.5,53.8 179.8,52.3 			"/>
			<polygon class="st0" points="179.5,52.5 180.2,53.9 179.1,54.7 178.5,53.2 			"/>
			<polygon class="st0" points="178.2,53.4 178.8,54.9 177.7,55.7 177.1,54.2 			"/>
			<polygon class="st0" points="176.9,54.3 177.4,55.8 176.3,56.6 175.8,55.1 			"/>
			<polygon class="st0" points="175.6,55.3 176,56.7 174.9,57.5 174.5,56 			"/>
			<polygon class="st0" points="174.3,56.2 174.6,57.6 173.5,58.5 173.2,57 			"/>
			<polygon class="st0" points="187,43.5 188.2,45.1 187.3,45.8 186.1,44.3 			"/>
			<polygon class="st0" points="185.7,44.5 186.8,46 185.8,46.8 184.7,45.3 			"/>
			<polygon class="st0" points="184.3,45.5 185.4,47 184.4,47.8 183.4,46.3 			"/>
			<polygon class="st0" points="183,46.5 184,48 183,48.8 182,47.3 			"/>
			<polygon class="st0" points="181.7,47.5 182.5,49 181.6,49.8 180.7,48.3 			"/>
			<polygon class="st0" points="180.3,48.5 181.1,50 180.1,50.8 179.4,49.3 			"/>
			<polygon class="st0" points="179,49.5 179.7,51 178.7,51.8 178,50.2 			"/>
			<polygon class="st0" points="177.7,50.5 178.3,51.9 177.3,52.8 176.7,51.2 			"/>
			<polygon class="st0" points="176.4,51.5 176.9,52.9 175.9,53.8 175.3,52.2 			"/>
			<polygon class="st0" points="175,52.5 175.5,53.9 174.4,54.8 174,53.2 			"/>
			<polygon class="st0" points="173.7,53.4 174.1,54.9 173,55.8 172.7,54.2 			"/>
			<polygon class="st0" points="184.9,41 186.2,42.4 185.3,43.2 184,41.7 			"/>
			<polygon class="st0" points="183.7,41.9 184.9,43.4 184,44.2 182.8,42.7 			"/>
			<polygon class="st0" points="182.5,42.9 183.6,44.4 182.7,45.2 181.6,43.7 			"/>
			<polygon class="st0" points="181.3,43.9 182.4,45.4 181.4,46.1 180.4,44.7 			"/>
			<polygon class="st0" points="180.2,44.9 181.1,46.3 180.1,47.1 179.2,45.7 			"/>
			<polygon class="st0" points="179,45.8 179.8,47.3 178.8,48.1 178,46.7 			"/>
			<polygon class="st0" points="177.8,46.8 178.5,48.3 177.5,49.1 176.8,47.7 			"/>
			<polygon class="st0" points="176.6,47.8 177.2,49.3 176.2,50.1 175.6,48.7 			"/>
			<polygon class="st0" points="175.4,48.8 176,50.2 174.9,51.1 174.3,49.7 			"/>
			<polygon class="st0" points="174.2,49.7 174.7,51.2 173.6,52.1 173.1,50.7 			"/>
			<polygon class="st0" points="173.1,50.7 173.4,52.2 172.3,53.1 171.9,51.7 			"/>
			<path class="st0" d="M102.2,3.2c0,0-18.2,0.6-30.6,5.9c0,0,0.3,1.3,0.4,1.7c10.7-3.3,16.1-4.9,30.1-5.9L102.2,3.2z"/>
			<path class="st0" d="M102.4,6.7c-0.5,0-17.9,0.7-29.5,5.7c0,0.1,0.3,1.3,0.4,1.7c9.7-3,15.8-4.8,29.1-5.7
				C102.3,7.8,102.3,7.3,102.4,6.7z"/>
			<path class="st0" d="M102.5,10.1c-1,0-17.5,0.8-28.5,5.5c0.1,0.3,0.3,1.3,0.4,1.7c8.7-2.7,15.6-4.7,28.1-5.5V10.1z"/>
			<path class="st0" d="M102.6,13.6c-1.5-0.1-17.2,0.9-27.4,5.3c0.1,0.4,0.3,1.4,0.4,1.7c7.8-2.4,15.3-4.6,27-5.3V13.6z"/>
			<path class="st0" d="M102.7,17.1c-2-0.1-16.9,0.9-26.4,5.1c0.1,0.6,0.2,1.1,0.4,1.7c8.4-2.8,17.1-4.5,26-5.1
				C102.8,18.2,102.8,17.7,102.7,17.1z"/>
			<path class="st0" d="M102.8,20.5c-2.6-0.1-16.5,1-25.3,4.9c0.2,0.7,0.3,1.4,0.4,1.7c5.8-1.8,14.8-4.5,24.9-4.9
				C102.9,21.6,102.9,21.1,102.8,20.5z"/>
			<path class="st0" d="M103,24c-3.1-0.1-16.2,1.1-24.3,4.7c0.2,0.9,0.4,1.4,0.4,1.6c4.8-1.5,14.5-4.4,23.9-4.7V24z"/>
			<path class="st0" d="M103.1,27.4c-3.6-0.1-15.8,1.2-23.2,4.5c0.2,0.5,0.3,1.1,0.4,1.6c3.9-1.2,14.3-4.3,22.8-4.4L103.1,27.4z"/>
			<path class="st0" d="M103.2,30.9c-4.1-0.1-15.5,1.2-22.2,4.3c0.2,0.5,0.3,1.1,0.4,1.6c2.9-0.9,14-4.2,21.8-4.2
				C103.3,32,103.3,31.5,103.2,30.9z"/>
			<path class="st0" d="M103.3,34.3c-4.6-0.2-15.1,1.3-21.1,4.1c0.3,1.3,0.4,1.5,0.4,1.6c1.9-0.6,13.8-4.1,20.7-4
				C103.4,36,103.4,35.4,103.3,34.3z"/>
			<path class="st0" d="M103.4,37.8c-5.1-0.2-14.8,1.4-20,3.8c0.2,0.5,0.3,1.1,0.4,1.6c1-0.3,13.5-4.1,19.7-3.8
				C103.5,39.4,103.5,39,103.4,37.8z"/>
			<path class="st0" d="M103.5,41.2c-5.6-0.2-14.4,1.5-19,3.6l0.4,1.6c0,0,13.2-4,18.7-3.6C103.6,42.9,103.6,42.5,103.5,41.2z"/>
			<path class="st0" d="M100.9,43.6c0,0-9.7,1.2-13,2.5c0,0.1,0.2,1.2,0.2,1.2c4.2-1.1,8.5-1.9,12.8-2.4V43.6z"/>
			<path class="st0" d="M101.1,45.6c0,0-9.7,1.2-13,2.5c0,0.1,0.2,1.2,0.2,1.2c4.2-1.1,8.5-1.9,12.8-2.4V45.6z"/>
			<path class="st0" d="M101.3,47.5c0,0-9.7,1.2-13,2.5c0,0.1,0.2,1.2,0.2,1.2c4.2-1.1,8.5-1.9,12.8-2.4V47.5z"/>
			<polygon class="st0" points="98.5,49.6 92.2,50.9 92.4,52 98.6,50.7 			"/>
			<polygon class="st0" points="98.8,51.5 92.5,52.8 92.7,53.9 98.9,52.7 			"/>
			<polygon class="st0" points="99.3,53.5 93,54.7 93.2,55.8 99.4,54.6 			"/>
			<polygon class="st0" points="95.6,56 95.9,57.6 97.7,57.2 97.6,55.6 			"/>
			<polygon class="st0" points="97.9,57.9 96.1,58.3 96.4,59.8 98.1,59.5 			"/>
			<polygon class="st0" points="98.2,60.2 96.6,60.5 97,62.1 98.4,61.8 			"/>
			<polygon class="st0" points="98.5,62.5 97.2,62.7 97.5,64.3 98.7,64.1 			"/>
			<polygon class="st0" points="98.9,64.7 97.7,64.9 98.1,66.5 99.1,66.3 			"/>
			<polygon class="st0" points="99.2,67 98.3,67.2 98.6,68.8 99.4,68.6 			"/>
			<polygon class="st0" points="99.5,69.3 98.8,69.4 99.1,71 99.7,70.9 			"/>
			<polygon class="st0" points="99.9,71.6 99.3,71.6 99.7,73.2 100,73.2 			"/>
			<polygon class="st0" points="100.2,73.9 100.4,75.4 100.2,75.5 99.9,73.8 			"/>
			<circle class="st0" cx="106.7" cy="106.8" r="104.2"/>
			<line class="st0" x1="106.7" y1="1.1" x2="106.7" y2="210.9"/>
			<line class="st0" x1="88.5" y1="2.7" x2="125" y2="209.3"/>
			<line class="st0" x1="70.8" y1="7.4" x2="142.6" y2="204.6"/>
			<line class="st0" x1="54.3" y1="15.2" x2="159.2" y2="196.9"/>
			<line class="st0" x1="39.3" y1="25.6" x2="174.2" y2="186.4"/>
			<line class="st0" x1="26.4" y1="38.6" x2="187.1" y2="173.5"/>
			<line class="st0" x1="15.9" y1="53.6" x2="197.6" y2="158.5"/>
			<line class="st0" x1="8.1" y1="70.1" x2="205.3" y2="141.9"/>
			<line class="st0" x1="3.4" y1="87.8" x2="210.1" y2="124.2"/>
			<line class="st0" x1="1.8" y1="106" x2="211.7" y2="106"/>
			<line class="st0" x1="3.4" y1="124.2" x2="210.1" y2="87.8"/>
			<line class="st0" x1="8.1" y1="141.9" x2="205.3" y2="70.1"/>
			<line class="st0" x1="15.9" y1="158.5" x2="197.6" y2="53.6"/>
			<line class="st0" x1="26.4" y1="173.5" x2="187.1" y2="38.6"/>
			<line class="st0" x1="39.3" y1="186.4" x2="174.2" y2="25.6"/>
			<line class="st0" x1="54.3" y1="196.9" x2="159.2" y2="15.2"/>
			<circle class="st0" cx="106.9" cy="106.8" r="104.2"/>
			<line class="st0" x1="88.5" y1="2.7" x2="125" y2="209.3"/>
			<line class="st0" x1="70.8" y1="7.4" x2="142.6" y2="204.6"/>
			<line class="st0" x1="54.3" y1="15.2" x2="159.2" y2="196.9"/>
			<line class="st0" x1="39.3" y1="25.6" x2="174.2" y2="186.4"/>
			<line class="st0" x1="26.4" y1="38.6" x2="187.1" y2="173.5"/>
			<line class="st0" x1="15.9" y1="53.6" x2="197.6" y2="158.5"/>
			<line class="st0" x1="8.1" y1="70.1" x2="205.3" y2="141.9"/>
			<line class="st0" x1="3.4" y1="87.8" x2="210.1" y2="124.2"/>
			<line class="st0" x1="1.8" y1="106" x2="211.7" y2="106"/>
			<line class="st0" x1="3.4" y1="124.2" x2="210.1" y2="87.8"/>
			<line class="st0" x1="8.1" y1="141.9" x2="205.3" y2="70.1"/>
			<line class="st0" x1="15.9" y1="158.5" x2="197.6" y2="53.6"/>
			<line class="st0" x1="26.4" y1="173.5" x2="187.1" y2="38.6"/>
			<line class="st0" x1="39.3" y1="186.4" x2="174.2" y2="25.6"/>
			<line class="st0" x1="54.3" y1="196.9" x2="159.2" y2="15.2"/>
			<line class="st0" x1="70.8" y1="204.6" x2="142.6" y2="7.4"/>
			<circle class="st0" cx="107" cy="106.7" r="104.2"/>
			<line class="st0" x1="70.8" y1="7.4" x2="142.6" y2="204.6"/>
			<line class="st0" x1="54.3" y1="15.2" x2="159.2" y2="196.9"/>
			<line class="st0" x1="39.3" y1="25.6" x2="174.2" y2="186.4"/>
			<line class="st0" x1="26.4" y1="38.6" x2="187.1" y2="173.5"/>
			<line class="st0" x1="15.9" y1="53.6" x2="197.6" y2="158.5"/>
			<line class="st0" x1="8.1" y1="70.1" x2="205.3" y2="141.9"/>
			<line class="st0" x1="3.4" y1="87.8" x2="210.1" y2="124.2"/>
			<line class="st0" x1="1.8" y1="106" x2="211.7" y2="106"/>
			<line class="st0" x1="3.4" y1="124.2" x2="210.1" y2="87.8"/>
			<line class="st0" x1="8.1" y1="141.9" x2="205.3" y2="70.1"/>
			<line class="st0" x1="15.9" y1="158.5" x2="197.6" y2="53.6"/>
			<line class="st0" x1="26.4" y1="173.5" x2="187.1" y2="38.6"/>
			<line class="st0" x1="39.3" y1="186.4" x2="174.2" y2="25.6"/>
			<line class="st0" x1="54.3" y1="196.9" x2="159.2" y2="15.2"/>
			<line class="st0" x1="70.8" y1="204.6" x2="142.6" y2="7.4"/>
			<line class="st0" x1="88.5" y1="209.3" x2="125" y2="2.7"/>
			<path class="st0" d="M12.5,218.7c0-1-0.1-2-0.5-2.9c-0.4-0.7-1.2-1.1-2-1H9.3v-0.7c3.7,0.1,5.6,0.1,9.3,0.1
				c2.4,0,4.7,0.5,6.8,1.7c1.9,1.2,2.8,3.4,2.7,6.7c0,1.4-0.4,2.8-1.2,3.9c-0.9,1.1-2.1,1.9-3.5,2.1c1.9,0.6,3.5,1.8,4.5,3.5
				c0.9,1.7,1.3,3.5,1.2,5.4c-0.1,3.3-1.1,5.2-3,5.8s-4.2,0.2-6.9-0.9s-4.1-1.8-6.9-3.1C12.5,231.1,12.5,226.9,12.5,218.7z
				 M19,227.1c0.9,0.2,1.9,0.2,2.8-0.1s1.7-0.9,2.2-1.7c0.6-0.9,1-2.1,0.9-3.2c0.1-1.2-0.3-2.4-0.9-3.5c-0.5-0.9-1.4-1.7-2.4-2.1
				c-0.9-0.5-2-0.7-3-0.7c-0.9,0-1.8,0.1-2.7,0.3c0,4.2-0.1,6.3-0.1,10.5C17,226.7,17.7,226.9,19,227.1L19,227.1z M23.7,241
				c1.2-0.7,1.8-2.1,1.8-4.2c0.1-1.9-0.5-3.7-1.6-5.2c-1.3-1.5-3.1-2.4-5-2.7c-1.3-0.3-2-0.5-3.3-0.8c-0.1,4.3-0.1,6.4-0.1,10.7
				c1,0.8,2.1,1.4,3.3,1.9C20.9,241.6,22.5,241.7,23.7,241z"/>
			<path class="st0" d="M34.8,220.5c0.1-1.3-0.1-2.6-0.4-3.9c-0.3-0.8-1.1-1.4-2-1.3h-0.7v-1c6.1,0.1,9.2,0.1,15.3,0.1
				c2,0,3,1.6,2.9,4.6c0,1.7-0.1,2.6-0.1,4.3h-0.7c0.1-4.4-1.3-6.6-4.3-6.7c-2.7-0.1-4-0.1-6.7-0.2c-0.1,5.5-0.2,8.2-0.4,13.7
				c3.9,0.6,5.8,0.9,9.7,1.4c0,0.8,0,1.5-0.1,2.3l-9.7-1.5c-0.2,5.9-0.2,8.9-0.4,14.8c2.5,0.8,3.7,1.1,6.3,1.8
				c1.3,0.5,2.7,0.3,3.9-0.4c1-0.7,1.7-2.2,2.4-4.4c0.2,0.2,0.4,0.3,0.7,0.4c-0.6,2.1-0.8,3.2-1.4,5.2c-0.5,1.8-1.4,2.5-2.8,2.2
				c-5-1.4-7.4-2.1-12.3-3.8C34.4,237.1,34.5,231.5,34.8,220.5z"/>
			<path class="st0" d="M51.2,253.2v-1.5c1.2,0.2,2.3-0.4,3.2-1.8s1.7-4.4,2.3-8.8c0.7-6.4,1.1-12.8,1.2-19.2
				c0.1-1.5-0.1-3.1-0.4-4.6c-0.2-0.9-1.1-1.6-2-1.5h-0.4v-1.2c7.1,0,10.7,0.1,17.8,0.1c-0.2,14.2-0.5,28.4-0.7,42.6l-3.3-0.5
				c0.2-13.2,0.5-26.4,0.7-39.6c-3.6-0.1-5.4-0.1-9-0.1c0,2-0.1,2.9-0.1,4.9c-0.1,6.9-0.5,13.8-1.4,20.6c-0.7,4.9-1.6,8.1-2.7,9.7
				s-2.2,2.3-3.6,1.9C52.2,254,51.7,253.6,51.2,253.2z"/>
			<path class="st0" d="M82.6,256.7c-1.9-2.6-3.2-5.6-3.9-8.7c-0.9-3.9-1.3-7.8-1.2-11.8c0.1-3.9,0.6-7.8,1.5-11.6
				c0.8-3,2.1-5.8,4-8.3c1.4-1.9,3.6-3,5.9-3.1c2.3,0,4.5,1.2,5.9,3.1c1.9,2.5,3.2,5.4,3.9,8.5c1.9,7.9,1.9,16.1,0,24
				c-0.7,3.1-2,5.9-4,8.4c-1.4,1.9-3.7,2.9-6.1,2.8C86.3,260.1,84.3,258.9,82.6,256.7z M92.8,255.2c1.4-2.2,2.3-4.6,2.7-7.2
				c0.6-3.7,1-7.4,1-11.1c0-3.7-0.3-7.4-0.9-11.1c-0.4-2.6-1.3-5-2.6-7.3c-0.8-1.5-2.3-2.5-4-2.6c-1.7,0.1-3.2,1-4.1,2.5
				c-1.4,2.1-2.3,4.6-2.7,7.1c-0.7,3.6-1,7.2-1,10.8c-0.1,3.7,0.2,7.3,0.8,10.9c0.4,2.6,1.2,5.1,2.6,7.3c0.8,1.6,2.3,2.6,4.1,2.8
				C90.2,257.7,91.6,256.9,92.8,255.2L92.8,255.2z"/>
			<path class="st0" d="M108.8,257.5c-1.9-2.4-3.3-5.2-4-8.2c-1.9-7.8-1.9-16,0.1-23.8c0.7-3.2,2.1-6.3,4.1-8.9
				c1.7-2.2,3.6-3.2,5.6-3.2c1.8,0,3.6,0.5,5.1,1.5c1.5,0.9,2.6,2.2,3.3,3.8c0.5,1.1,0.7,2.4,0.8,3.6c0.1,1.5,0.2,3.6,0.2,6.2h-0.7
				c-0.5-4.2-1.4-7.4-2.6-9.4s-2.9-3.1-4.9-3.1c-2.6,0-4.7,1.7-6.2,5.1s-2.4,8.9-2.3,16.5c0,3.3,0.3,6.6,1,9.9
				c0.4,2.6,1.5,5.1,3,7.3c1.1,1.7,3,2.7,5,2.6c1.9-0.1,3.6-1.1,4.7-2.7c1.6-2.2,2.7-4.6,3.5-7.2c0.2,0.3,0.4,0.6,0.7,0.9
				c-1.1,4-2.4,7-4.1,8.8c-1.5,1.7-3.6,2.8-5.9,3C112.8,260.3,110.4,259.3,108.8,257.5z"/>
			<path class="st0" d="M129.7,222.4c0.1-1.7-0.1-3.3-0.6-4.9c-0.2-0.9-1-1.6-2-1.6h-0.7v-1.3h3.2c0.7-0.1,1.4,0.2,2,0.6
				c0.6,0.6,0.9,1.4,1,2.2c0.2,1.6,0.4,3.3,0.4,4.9c0.2,9.6,0.3,19.2,0.5,28.8c3.5-12.2,7.1-24.4,10.9-36.5h3.2
				c0.3,13.1,0.6,26.2,0.9,39.4c-1.3,0.3-2,0.4-3.3,0.7c-0.3-11.5-0.5-23.1-0.8-34.6c-3.7,12.2-7.3,24.5-10.9,36.8l-3.3,0.5
				C130.1,245.7,129.9,234,129.7,222.4z"/>
			<path class="st0" d="M159.9,216.6c-1.3,0-1.9,0.1-3.2,0.1c-3,0.1-4.4,2.3-4.3,6.8h-0.7c0-1.7-0.1-2.6-0.1-4.4
				c-0.1-3.1,0.9-4.7,2.9-4.7c6.7-0.1,10-0.1,16.7-0.2v2c-3.2,0.1-4.9,0.1-8.1,0.2c0.3,11,0.6,22.1,0.9,33.1l-3.2,1
				C160.5,239.3,160.2,228,159.9,216.6z"/>
			<path class="st0" d="M175.6,219.9c0.1-1.2-0.1-2.4-0.6-3.5c-0.4-0.8-1.2-1.2-2-1.1h-0.7v-1h3.2c0.7-0.1,1.4,0.1,2,0.4
				c0.5,0.4,0.9,1,1,1.6c0.2,1.1,0.4,2.3,0.4,3.4c0.2,8.2,0.3,12.2,0.4,20.4c3.1-8.9,6.7-17.6,11-26h3.2v23.8
				c-1.2,0.6-1.8,0.9-3.1,1.5c-0.1-8.7-0.1-13.1-0.1-21.8c-4.3,8.6-7.9,17.5-10.9,26.6c-1.3,0.5-1.9,0.8-3.1,1.2
				C175.9,235.2,175.8,230.1,175.6,219.9z"/>
		</g>
	</g>
</g>
</svg>
