<svg xmlns="http://www.w3.org/2000/svg" viewBox="0 0 138.5 109.4"><title>Ресурс 2</title><g id="Слой_2" data-name="Слой 2"><g id="Слой_1-2" data-name="Слой 1"><path d="M68.3,91.3l-2.1-2-2.4,1.5-1.9-2.2-2.6,1.2-1.6-2.4-2.7.9-1.2-2.6-2.8.5-.9-2.7-2.9.2-.6-2.8-2.9-.2-.2-2.9-2.8-.6.2-2.9-2.7-.9.5-2.8-2.6-1.2.9-2.8L34.6,65l1.2-2.6-2.2-1.9L35.1,58l-2-2.1,1.8-2.2-1.7-2.3,2.1-2-1.4-2.5,2.3-1.7-1-2.7,2.5-1.4L37,38.3l2.7-1.1-.3-2.9,2.8-.7V30.7l2.9-.4.4-2.9h2.9l.7-2.8,2.9.3,1.1-2.7,2.8.7,1.4-2.5,2.7,1,1.7-2.3,2.5,1.4,2-2.1,2.3,1.7,2.2-1.8,2.1,2,2.4-1.5L77,21l2.6-1.2,1.6,2.4,2.7-.9,1.2,2.6,2.8-.5.8,2.5L84.6,30a28.43,28.43,0,0,0-15.3-4.3A29.13,29.13,0,1,0,94.1,39.6l4.1-4.1,2.5.8-.5,2.8,2.6,1.3-.9,2.8,2.4,1.6-1.2,2.6,2.2,1.9-1.5,2.5,2,2.1L104,56.1l1.7,2.3-2.1,2,1.4,2.5-2.3,1.7,1,2.7-2.5,1.4.7,2.8-2.7,1.1.3,2.9-2.8.7v2.9l-2.9.4-.4,2.9H90.5l-.7,2.8-2.9-.3-1.1,2.7L83,86.9l-1.4,2.5-2.7-1-1.7,2.3-2.5-1.4-2,2.1-2.3-1.7-2.1,1.6ZM54.2,77.6a28.16,28.16,0,0,1-7.5-7.5c6.3-5.9,10-11.6,10-15.3s-3.7-9.3-10-15.3A26.78,26.78,0,0,1,54.2,32c5.9,6.3,11.5,10,15.2,10,3.2,0,7.9-2.8,12.9-7.7l19.4-19.5h14.9L88.9,42.5C84.5,47.3,82,51.6,82,54.7,82,58.4,85.7,64,92,70a26.78,26.78,0,0,1-7.5,7.5c-5.9-6.3-11.5-10-15.2-10s-9.2,3.8-15.1,10.1ZM69.4,62.1a7.3,7.3,0,1,0-7.3-7.3A7.34,7.34,0,0,0,69.4,62.1Zm0-1.3a6,6,0,1,1,6-6A6,6,0,0,1,69.4,60.8ZM96.6,13.5a4.44,4.44,0,0,1-4.4-4.4V4.4A4.37,4.37,0,0,1,96.6,0h37.5a4.44,4.44,0,0,1,4.4,4.4V9.1a4.37,4.37,0,0,1-4.4,4.4Zm18.8-1.1a5.6,5.6,0,1,0-5.6-5.6A5.59,5.59,0,0,0,115.4,12.4Zm0-2.8a2.73,2.73,0,0,1-2.8-2.8,2.8,2.8,0,1,1,5.6,0A2.86,2.86,0,0,1,115.4,9.6Zm-11-.7a2.2,2.2,0,1,0-2.2-2.2A2.22,2.22,0,0,0,104.4,8.9Zm21.9,0a2.2,2.2,0,1,0-2.2-2.2A2.29,2.29,0,0,0,126.3,8.9Zm-28-.7a1.54,1.54,0,0,0,1.5-1.5,1.5,1.5,0,0,0-3,0A1.61,1.61,0,0,0,98.3,8.2Zm34.1,0a1.54,1.54,0,0,0,1.5-1.5,1.5,1.5,0,1,0-3,0A1.61,1.61,0,0,0,132.4,8.2Z"/><path d="M70.2,18l2.1,2,2.4-1.5,1.9,2.2,2.6-1.2,1.6,2.4,2.7-.9,1.2,2.6,2.8-.5.9,2.7,2.9-.2.6,2.8,2.9.2.2,2.9,2.8.6L97.6,35l2.7.9-.5,2.8,2.6,1.2-.9,2.8,2.4,1.6-1.2,2.6,2.2,1.9-1.5,2.5,2,2.1-1.8,2.2,1.7,2.4-2.1,2,1.4,2.5-2.3,1.7,1,2.7-2.5,1.4.7,2.8-2.7,1.1.3,2.9-2.8.7v2.9l-2.9.4L93,82H90.1l-.7,2.8-2.9-.3-1.1,2.7-2.8-.7L81.2,89l-2.7-1-1.7,2.3-2.5-1.4-2,2.1L70,89.3l-2.2,1.8-2.1-2-2.4,1.5-1.8-2.2-2.6,1.2-1.6-2.4-2.7.9-1.2-2.6-2.8.5-.8-2.5,4.1-4.1a28.43,28.43,0,0,0,15.3,4.3A29.13,29.13,0,1,0,44.4,69.8l-4.1,4.1-2.5-.8.5-2.8L35.7,69l.9-2.8-2.4-1.6L35.4,62l-2.2-1.9,1.5-2.5-2-2.1,1.8-2.2-1.7-2.4,2.1-2-1.4-2.5,2.3-1.7-1-2.7,2.5-1.4-.7-2.8,2.7-1.1L39,33.8l2.8-.7V30.2l2.9-.4.4-2.9H48l.7-2.8,2.9.3,1.1-2.7,2.8.7,1.4-2.5,2.7,1,1.7-2.3L63.8,20l2-2.1,2.3,1.7L70.2,18ZM84.3,31.8a28.16,28.16,0,0,1,7.5,7.5c-6.3,5.9-10,11.6-10,15.3s3.7,9.3,10,15.3a26.78,26.78,0,0,1-7.5,7.5c-5.9-6.3-11.5-10-15.2-10-3.2,0-7.9,2.8-12.9,7.7L36.8,94.6H21.9L49.6,66.9c4.4-4.8,6.9-9.1,6.9-12.2,0-3.7-3.7-9.3-10-15.3A26.78,26.78,0,0,1,54,31.9c5.9,6.3,11.5,10,15.2,10S78.4,38,84.3,31.8ZM69.1,47.2a7.3,7.3,0,1,0,7.3,7.3A7.34,7.34,0,0,0,69.1,47.2Zm0,1.3a6,6,0,1,1-6,6A6,6,0,0,1,69.1,48.5ZM41.9,95.9a4.44,4.44,0,0,1,4.4,4.4V105a4.37,4.37,0,0,1-4.4,4.4H4.4A4.44,4.44,0,0,1,0,105v-4.7a4.37,4.37,0,0,1,4.4-4.4ZM23.1,97a5.6,5.6,0,1,0,5.6,5.6A5.53,5.53,0,0,0,23.1,97Zm0,2.8a2.8,2.8,0,1,1-2.8,2.8A2.8,2.8,0,0,1,23.1,99.8Zm11,.6a2.2,2.2,0,1,0,2.2,2.2A2.22,2.22,0,0,0,34.1,100.4Zm-21.9,0a2.2,2.2,0,1,0,2.2,2.2A2.22,2.22,0,0,0,12.2,100.4Zm28,.7a1.5,1.5,0,1,0,1.5,1.5A1.54,1.54,0,0,0,40.2,101.1Zm-34.1,0a1.5,1.5,0,1,0,0,3,1.54,1.54,0,0,0,1.5-1.5A1.61,1.61,0,0,0,6.1,101.1Z"/></g></g></svg>