<?xml version="1.0" encoding="utf-8"?>
<!-- Generator: Adobe Illustrator 22.1.0, SVG Export Plug-In . SVG Version: 6.00 Build 0)  -->
<svg version="1.1" id="bike-4" xmlns="http://www.w3.org/2000/svg" xmlns:xlink="http://www.w3.org/1999/xlink" x="0px" y="0px"
	 viewBox="0 0 1010 537.5" style="enable-background:new 0 0 1010 537.5;" xml:space="preserve">
<style type="text/css">
	.st0{fill:#FEB901;}
</style>
<path id="bike-4-bike-4" class="st0" d="M0,338c0,110.1,89.3,199.4,199.5,199.4c105.1,0,191.1-81.5,198.6-184.7c9.7,0,19.5,0,29.2,0
	c1.4,0,2.9,0,4.4,0c6.7,29.8,33.2,52.1,65.2,52.1c15.4,0,29.6-5.3,40.9-14.1l15.3,15.4c0.1,0.1,0.3,0.2,0.5,0.3
	c1.8,2.1,4.5,3.5,7.5,3.5h43.7c5.5,0,10.1-4.5,10.1-10.1c0-5.6-4.5-10.1-10.1-10.1h-43.7c-0.9,0-1.7,0.3-2.5,0.5l-10-10
	c9.4-11.5,15-26.2,15-42.2c0-12.9-3.8-25-10.1-35.2c2.3-2.3,4.5-4.7,6.8-7c16.4-17,32.9-34,49.3-50.9c17.4-17.9,34.7-35.8,52.1-53.8
	c15-15.5,30-31,45-46.4c5.2-5.4,10.4-10.8,15.6-16.1l9.1,26.3c-70.7,30.6-120.3,101-120.3,183c0,110.1,89.3,199.4,199.5,199.4
	c110.1,0,199.4-89.3,199.4-199.4c0-110.2-89.3-199.5-199.4-199.5c-17.4,0-34.1,2.4-50.2,6.6l-20.9-60.4l47.3-16
	c2.1-0.7,3.9-1.8,5.4-3.2c1-0.8,2-1.8,2.9-2.9c4.9-6.9,3.4-16.5-3.4-21.4l-53-38.3c-6.7-4.8-15.9-3.5-21,2.9h-27
	c-2-2.7-5.2-4.5-8.9-4.5h-48c-6.1,0-11.1,5-11.1,11.1c0,6.1,4.9,11.1,11.1,11.1h48c1.7,0,3.3-0.4,4.7-1.1h29.5
	c1.1,2.1,2.6,3.9,4.6,5.4l29.2,21.1l-34.8,11.8c-6.1,2.1-10,7.6-10.4,13.6c0,0.7,0,1.4,0,2c0.1,0.3,0,0.5,0.1,0.8
	c0.1,1.1,0.3,2.2,0.7,3.3l2.8,8c-15.4,0-30.8,0-46.3,0c-22.7,0-45.2,0-67.9,0c-25.1,0-50.1,0-75.2,0c-23.7,0-47.4,0-71.1,0
	c-18.5,0-37,0-55.5,0c-9.5,0-19,0-28.5,0c-0.5,0-1,0-1.6,0c-0.3,0-0.6,0-0.9,0c-0.1,0-0.1,0-0.2,0c-0.2,0-0.5,0.1-0.7,0.1
	c-0.1,0-0.2,0-0.3,0.1c-0.2,0-0.4,0.1-0.6,0.1c-0.2,0-0.3,0.1-0.5,0.1c-0.1,0-0.2,0.1-0.3,0.1c-2.4,0.7-4.5,2-6.1,3.8
	c-0.7,0.7-1.3,1.5-1.9,2.3c-4.4,6.5-8.8,13-13.1,19.5c-10.8,16.1-21.7,32.1-32.5,48.2c-1.1,1.5-2.1,3.1-3.1,4.6
	c-30-18.1-65-28.7-102.6-28.7C89.3,138.6,0,227.8,0,338z M882.3,184.4l-64,127.6l-48-138.6c12.9-3.2,26.4-5,40.4-5
	C836.2,168.3,860.5,174.2,882.3,184.4z M822.9,337.8c0,6.4-5.2,11.6-11.5,11.6c-5.8,0-10.4-4.3-11.2-9.8c-0.1-0.6-0.3-1.1-0.3-1.7
	c0-6.4,5.2-11.5,11.6-11.5c4,0,7.4,2.2,9.5,5.3C822.1,333.3,822.9,335.4,822.9,337.8z M969.9,280.1l-141.1,46.8
	c-1.3-2-2.8-3.7-4.7-5.2L891,188.6C927.3,208.2,955.6,240.8,969.9,280.1z M964.2,409.7l-133-66.7c0.4-1.7,0.8-3.4,0.8-5.3
	c0-0.6-0.1-1.1-0.2-1.7L973,289.2c4.6,15.4,7.2,31.8,7.2,48.8C980.2,363.7,974.4,387.9,964.2,409.7z M868.5,497.4l-47-141.8
	c1.9-1.1,3.7-2.5,5.2-4.1L960,418.4C940.4,454.8,907.8,483.1,868.5,497.4z M738.8,491.6l67.3-134.1c1.7,0.4,3.5,0.8,5.3,0.8
	c0.3,0,0.5-0.1,0.7-0.1l47.2,142.3c-15.5,4.6-31.8,7.2-48.8,7.2C784.9,507.7,760.7,501.8,738.8,491.6z M651.2,395.9L794,348.6
	c1,1.6,2.3,3.1,3.7,4.4l-67.5,134.5C693.8,467.8,665.5,435.2,651.2,395.9z M656.9,266.3l134.3,67.4c-0.3,1.3-0.4,2.7-0.4,4.1
	c0,0.6,0.1,1.1,0.2,1.7L648,386.8c-4.7-15.5-7.2-31.9-7.2-48.9C640.8,312.3,646.7,288.1,656.9,266.3z M741.2,183.4l48,138.5
	l-128.1-64.3C678.8,224.8,707.1,198.8,741.2,183.4z M141.5,178.7l47,141.7c-1.8,1.2-3.4,2.6-4.8,4.3L50,257.6
	C69.6,221.2,102.2,193,141.5,178.7z M211.1,337.8c0,6.4-5.2,11.6-11.5,11.6c-4.7,0-8.7-2.8-10.5-6.8c0-0.1-0.1-0.2-0.1-0.3l0,0
	c-0.3-0.7-0.6-1.4-0.7-2.1c0.2,0.7,0.4,1.4,0.7,2.1c-0.8-3.2-0.4-6.6,1.5-9.5c1.1-1.6,2.2-3.2,3.2-4.8c1.7-1,3.7-1.8,5.8-1.8
	C205.9,326.2,211.1,331.4,211.1,337.8z M271.2,184.4L214.7,297c-4.6,6.8-9.2,13.6-13.7,20.4c-0.5,0-0.9-0.1-1.4-0.1
	c-0.6,0-1.2,0.1-1.9,0.2l-47-141.8c15.5-4.7,31.9-7.2,48.9-7.2C225.2,168.3,249.4,174.2,271.2,184.4z M285.5,191.9
	c-7.2,10.7-14.4,21.3-21.6,32c-2.3,3.5-4.7,6.9-7,10.4l22.9-45.8C281.8,189.6,283.6,190.8,285.5,191.9z M307.2,207.1
	c23.1,19.1,41.1,44.2,51.6,73L229,323.1c10-14.9,20.1-29.8,30.1-44.7c13.8-20.4,27.6-40.8,41.3-61.3
	C302.6,213.8,304.9,210.5,307.2,207.1z M362,289.2c3.6,11.9,5.9,24.2,6.7,37.1c-7.4,0-14.7,0-22.1,0c-24.1,0-48.2,0-72.4,0
	c-8,0-16,0-24,0L362,289.2z M393,181.3c12.4,21.5,24.8,43,37.2,64.5c7.3,12.5,14.5,25.1,21.8,37.7l-8.3-8.3
	c-0.1-0.1-0.3-0.2-0.4-0.3c-1.9-2.1-4.5-3.5-7.5-3.5H392c-1.6,0-3,0.4-4.4,1.1c-12.5-35.8-34.7-67-63.7-90.2
	c5.4-7.9,10.7-15.9,16.1-23.8c7.1-10.6,14.3-21.2,21.4-31.8c0.6,1,1.1,1.9,1.7,2.9C373,146.8,383,164,393,181.3z M535.3,283.6
	c-10.9-7.7-24.1-12.3-38.4-12.3c-6.8,0-13.4,1-19.6,2.9c-2.8-4.8-5.5-9.6-8.3-14.4c-12.4-21.5-24.9-43-37.3-64.5
	c-11.4-19.8-22.9-39.6-34.3-59.5c-4-7-8.1-14-12.2-21c15.1,0,30.1,0,45.1,0c22.6,0,45.3,0,67.9,0c25.1,0,50.1,0,75.2,0
	c23.7,0,47.4,0,71.1,0c18.1,0,36.2,0,54.3,0c-9.8,10.1-19.6,20.2-29.3,30.3c-16.4,17-32.9,34-49.3,51
	c-17.4,17.9-34.8,35.8-52.1,53.8C557.1,261.1,546.2,272.3,535.3,283.6z M491.4,335.4c1-2,3-3.4,5.4-3.4c3.4,0,6.1,2.7,6.1,6.1
	c0,3.4-2.7,6.1-6.1,6.1c-0.9,0-1.6-0.2-2.4-0.5l-1.1-1.1C491.3,340.6,490.8,337.9,491.4,335.4z M436.7,338.1c0-4.1,0.4-8,1.2-11.9
	c1.8-9.1,5.7-17.4,11.1-24.4c2.5-3.3,5.3-6.3,8.4-9c0.7-0.6,1.4-1.2,2.2-1.8c6.2-4.9,13.4-8.6,21.2-10.8c5.1-1.4,10.5-2.2,16.1-2.2
	c12.5,0,24.2,3.8,33.8,10.4c7.4,5.1,13.6,11.7,18.1,19.5c5.2,8.9,8.2,19.2,8.2,30.2c0,13.2-4.3,25.3-11.5,35.2l-18.3-18.3
	c2.8-5,4.6-10.8,4.6-17c0-3.8-0.8-7.4-1.9-10.8c-2.9-8.9-9.1-16.1-17.3-20.2c-4.8-2.4-10.1-3.9-15.8-3.9c-0.9,0-1.8,0.2-2.7,0.3
	c-6.1,0.4-11.8,2.4-16.6,5.5c-2.7,1.8-5,4-7.1,6.4c-1.2,1.4-2.4,2.9-3.3,4.5c-1.2,2-2.2,4.1-3,6.3c-1.4,3.7-2.2,7.7-2.2,11.9
	c0,5.2,1.3,10.2,3.3,14.7c5.6,12,17.6,20.3,31.7,20.3c6.6,0,12.8-2,18.1-5.2L533,386c-10.1,7.6-22.6,12.2-36.1,12.2
	c-28.2,0-51.8-19.4-58.3-45.5C437.4,348,436.7,343.2,436.7,338.1z M398.3,326.2c-0.7-11.9-2.4-23.5-5.1-34.7h42.5
	c0.9,0,1.7-0.3,2.5-0.5l6,6c-6.5,8.4-11.1,18.3-13.1,29.2c-3.7,0-7.4,0-11.2,0C412.8,326.2,405.5,326.2,398.3,326.2z M353.1,409.7
	l-113.5-57c14,0,28,0,42,0c24.5,0,48.9,0,73.4,0c4.4,0,8.9,0,13.3,0C366.5,373,361.3,392.2,353.1,409.7z M257.4,497.4l-47.2-142.1
	c1.2-0.7,2.3-1.5,3.3-2.5c1.5,0,3.1,0,4.6,0l130.8,65.7C329.3,454.8,296.7,483.1,257.4,497.4z M127.7,491.6L195,357.8
	c1.5,0.3,3,0.6,4.6,0.6c0.5,0,1-0.1,1.5-0.2l47.2,142.3c-15.4,4.6-31.8,7.2-48.7,7.2C173.9,507.7,149.6,501.8,127.7,491.6z
	 M40.1,395.9l142.1-47.1c1.1,1.7,2.5,3.3,4.1,4.6L119,487.4C82.7,467.8,54.4,435.2,40.1,395.9z M37,386.8
	c-4.6-15.5-7.2-31.8-7.2-48.8c0-25.6,5.9-49.9,16.1-71.7l133.6,67.1c-0.3,1.4-0.5,2.9-0.5,4.4c0,0.6,0.1,1.3,0.2,1.9L37,386.8z
	 M434.1,80.1h-85.4c-11.5,0-20.8-9.3-20.8-20.8c0-11.5,9.3-20.8,20.8-20.8h85.4c11.5,0,20.8,9.3,20.8,20.8
	C454.9,70.8,445.6,80.1,434.1,80.1z"/>
</svg>
