<?xml version="1.0" encoding="utf-8"?>
<!-- Svg Vector Icons : http://www.onlinewebfonts.com/icon -->
<!DOCTYPE svg PUBLIC "-//W3C//DTD SVG 1.1//EN" "http://www.w3.org/Graphics/SVG/1.1/DTD/svg11.dtd">
<svg version="1.1" xmlns="http://www.w3.org/2000/svg" xmlns:xlink="http://www.w3.org/1999/xlink" x="0px" y="0px" viewBox="0 0 1000 1000" enable-background="new 0 0 1000 1000" xml:space="preserve">
<metadata> Svg Vector Icons : http://www.onlinewebfonts.com/icon </metadata>
<g><g transform="translate(0.000000,511.000000) scale(0.100000,-0.100000)"><path d="M2953.9,4920c-97.6-47.9-116.8-116.7-116.8-426.8v-268h976.2h976.2v277.5c0,216.3-7.7,292.8-30.6,336.9c-55.5,109.1-80.4,112.9-949.4,112.9C3110.8,4952.6,3011.3,4948.7,2953.9,4920z"/><path d="M142.1,4812.9l-42.1-44V96.6v-4674.1l49.8-38.3C201.4-4656,211-4656,1882-4656h1682.5l-3.8,3477.9l-5.7,3479.8L1918.4,3578.3C720.2,4514.3,268.4,4856.9,232.1,4856.9C205.3,4856.9,165.1,4837.7,142.1,4812.9z M1899.2,2579.1V2426h-727.3H444.5v153.1v153.1h727.3h727.3V2579.1z M3057.2,1583.8v-392.4l-396.2-5.7l-398.1-3.8v402v402l398.1-3.8l396.2-5.7V1583.8z M1895.4,1350.3l-5.7-158.9h-717.8H454.1l-5.7,158.9l-5.7,157h729.3h729.3L1895.4,1350.3z M3057.2,358.8V-33.6L2661-39.3l-398.1-3.8v402v402l398.1-3.8l396.2-5.7V358.8z M1899.2,119.6V-43.1l-721.6,3.8l-723.5,5.7l-5.7,158.9l-5.7,157h729.3h727.3V119.6z M3063-789.6c1.9-174.2,0-352.2-7.7-396.2l-9.6-82.3h-392.4h-390.5v402v402L2661-468l396.2-5.7L3063-789.6z M1899.2-1105.4v-162.7h-727.3H444.5v149.3c0,82.3,5.7,157,13.4,162.7c5.7,7.7,333,13.4,727.3,13.4h713.9V-1105.4z M3063-2100.7l-1.9-392.4h-398.1h-400v392.4v392.4h402h400L3063-2100.7z M1895.4-2334.3l5.7-158.9h-729.3H444.5v149.3c0,82.3,5.7,157,13.4,162.7c7.7,7.7,331.1,11.5,721.6,9.6l710.1-5.7L1895.4-2334.3z M3063-3325.7v-392.4h-400h-400v392.4v392.4h400h400V-3325.7z M1895.4-3559.3l5.7-158.9h-729.3H444.5v149.3c0,82.3,5.7,157,13.4,162.7c7.7,7.7,331.1,11.5,721.6,9.6l710.1-5.7L1895.4-3559.3z"/><path d="M7465.3,4535.3c-17.2-7.7-335-285.2-706.3-616.3l-675.7-602.9l742.7-5.7c407.7-1.9,1066.1-1.9,1464.3,0l723.5,5.7l-610.6,545.5c-771.4,689.1-771.4,689.1-846,687.1C7524.7,4548.7,7484.5,4543,7465.3,4535.3z"/><path d="M2201.6,4016.6l-63.2-55.5v-218.2v-216.3l1680.5-5.7l1682.5-3.8l-7.7,222l-5.7,222l-63.2,55.5l-61.3,55.5H3813.3H2262.9L2201.6,4016.6z"/><path d="M2427.5,3365.8c9.6-9.6,183.8-147.4,388.6-306.3l371.3-289h1154.2h1156.1v306.2V3383H3953C3051.5,3383,2416,3375.4,2427.5,3365.8z"/><path d="M5669.9-780v-3952.5h130.2h128.2l-3.8,3927.7c-3.8,2161-9.6,3941.1-15.3,3954.4c-5.7,15.3-49.8,23-124.4,23h-114.8V-780z"/><path d="M6066.1,3159.1c-7.7-5.7-13.4-576.1-13.4-1265.2c0-1186.7,1.9-1251.8,34.5-1236.5c17.2,9.6,220.1,19.1,449.8,23l415.4,5.7v1244.1v1242.2h-436.4C6274.8,3172.5,6071.9,3166.8,6066.1,3159.1z"/><path d="M7105.5,1928.4V684.2h306.3H7718v589.5c0,340.7,7.7,616.3,19.1,658.4c23,80.4,112.9,164.6,193.3,181.8l55.5,11.5V2648v524.5h-440.2h-440.2V1928.4z"/><path d="M8139.1,2646.1v-526.4h256.5c248.8,0,258.4-1.9,317.7-49.8c114.8-97.6,114.8-101.4,114.8-769.4V691.9l95.7-19.1l95.7-21.1v1261.4v1259.4h-440.2h-440.2V2646.1z"/><path d="M9172.7-707.3c0-2136.1-5.7-3914.3-11.5-3952.5l-13.4-72.7h281.4c317.7,0,392.4,19.1,440.2,112.9c26.8,51.7,30.6,444,30.6,3839.6c0,3395.5-3.8,3787.9-30.6,3839.6c-47.9,91.9-124.4,112.9-428.8,112.9h-268V-707.3z"/><path d="M3392.2,2621.3c0-7.7,72.7-68.9,162.7-137.8l162.7-124.4v-166.5v-168.4h890h891.9l-5.7,302.4l-5.7,300.5l-1047,5.7C3863,2634.6,3392.2,2630.8,3392.2,2621.3z"/><path d="M7913.2,1941.8l-42.1-44V690V-519.7l49.8-38.3c47.9-36.4,76.6-40.2,363.7-40.2c289,0,317.7,3.8,352.2,38.3c38.3,38.3,38.3,63.2,38.3,1253.7c0,1190.6,0,1215.4-38.3,1253.7c-34.5,34.4-63.2,38.3-359.8,38.3C7964.9,1985.8,7953.4,1983.9,7913.2,1941.8z M8422.3,1264.2l-5.7-455.5l-93.8-5.7c-51.7-3.8-114.8-1.9-139.7,5.7l-44,9.6V1268v449.8h143.6h143.6L8422.3,1264.2z M8422.3,125.3l3.8-455.5h-143.6h-143.6v459.4v461.3l139.7-5.7l137.8-5.7L8422.3,125.3z"/><path d="M3717.6,1564.7v-306.3h890h890v306.3v306.3h-890h-890V1564.7z"/><path d="M3717.6,818.2V512h890h890v306.3v306.3h-890h-890V818.2z"/><path d="M6138.9,527.3c-21-11.5-44-30.6-51.7-42.1c-7.6-11.5-15.3-1171.4-15.3-2578.2v-2557.2l40.2-36.4c38.3-34.5,90-36.4,1437.5-36.4h1397.3l36.4,45.9c34.5,44,36.4,112.9,36.4,2595.5V471.8l-49.8,38.3c-28.7,23-70.8,40.2-95.7,40.2h-45.9V14.3c0-589.5-1.9-601-114.8-696.7l-61.3-49.8h-365.6c-331.1,0-373.2,3.8-428.8,38.3c-128.3,78.5-130.2,82.3-135.9,692.9l-5.7,551.3h-769.5C6408.7,548.3,6165.7,542.6,6138.9,527.3z M7293,20l-5.7-149.3h-478.5h-478.5L6324.5,20l-5.7,147.4h490h490L7293,20z M7296.9-588.6v-143.6h-488.1h-488.1v143.6v143.6h488.1h488.1V-588.6z M7296.9-1191.6v-153.1h-488.1h-488.1v153.1v153.1h488.1h488.1V-1191.6z M8751.6-1191.6v-153.1H8273h-478.5v153.1v153.1H8273h478.5V-1191.6z M7296.9-1794.5V-1938h-488.1h-488.1v143.6v143.6h488.1h488.1V-1794.5z M8751.6-1794.5V-1938H8273h-478.5v143.6v143.6H8273h478.5V-1794.5z M7293-2401.2l5.7-149.3h-490h-488.1v139.7c0,78.5,5.7,145.5,11.5,153.1c5.8,5.7,224,9.6,484.3,7.7l470.8-3.8L7293-2401.2z M8751.6-2399.3v-151.2H8273h-478.5v153.1v151.2H8273l478.5-1.9V-2399.3z M7296.9-3009.9V-3163h-488.1h-488.1v153.1v153.1h488.1h488.1V-3009.9z M8751.6-3009.9V-3163H8273h-478.5v153.1v153.1H8273h478.5V-3009.9z M7296.9-3612.9v-143.6h-488.1h-488.1v143.6v143.6h488.1h488.1V-3612.9z M8751.6-3612.9v-143.6H8273h-478.5v143.6v143.6H8273h478.5V-3612.9z M7293-4219.6l5.7-149.3h-490h-488.1v139.7c0,78.5,5.7,147.4,13.4,155c7.6,5.7,224,9.6,482.4,7.6l470.8-5.7L7293-4219.6z M8751.6-4215.8v-153.1H8273h-478.5v153.1v153.1H8273h478.5V-4215.8z"/><path d="M3717.6,52.6v-306.3l886.2,3.8l884.3,5.7l5.7,302.4l5.7,300.5h-891.9h-890V52.6z"/><path d="M3717.6-693.9v-306.3h890h890v306.3v306.3h-890h-890V-693.9z"/><path d="M3717.6-1440.4v-306.3h890h891.9l-5.7,302.4l-5.7,300.5l-884.3,5.7l-886.2,3.8V-1440.4z"/><path d="M3717.6-2206v-306.3h890h890v306.3v306.3h-890h-890V-2206z"/><path d="M3717.6-2952.5v-306.2h890h890v306.2v306.3h-890h-890V-2952.5z"/><path d="M3717.6-3718.1v-306.3l886.2,3.8l884.3,5.7l5.7,302.4l5.7,300.5h-891.9h-890V-3718.1z"/><path d="M3717.6-4407.2V-4656h890h890v248.8v248.8h-890h-890V-4407.2z"/></g></g>
</svg>